<?xml version="1.0" encoding="UTF-8"?>
<svg id="Layer_1" xmlns="http://www.w3.org/2000/svg" xmlns:xlink="http://www.w3.org/1999/xlink" viewBox="0 0 500 160">
  <defs>
    <style>
      .cls-1 {
        fill: url(#linear-gradient-3);
      }

      .cls-2 {
        fill: url(#linear-gradient-2);
      }

      .cls-3 {
        fill: url(#linear-gradient);
      }

      .cls-4 {
        fill: #464342;
      }

      .cls-5 {
        fill: #e7e7e7;
      }

      .cls-6 {
        fill: #fff;
      }
    </style>
    <linearGradient id="linear-gradient" x1="102.96" y1="783.99" x2="370.99" y2="1052.01" gradientTransform="translate(0 -838)" gradientUnits="userSpaceOnUse">
      <stop offset="0" stop-color="#b72026"/>
      <stop offset=".3" stop-color="#e90037"/>
      <stop offset=".7" stop-color="#b72026"/>
      <stop offset="1" stop-color="#e90037"/>
    </linearGradient>
    <linearGradient id="linear-gradient-2" x1="363.43" y1="974.57" x2="476.57" y2="861.43" gradientTransform="translate(0 -838)" gradientUnits="userSpaceOnUse">
      <stop offset="0" stop-color="#b72026"/>
      <stop offset=".33" stop-color="#e90037"/>
      <stop offset=".66" stop-color="#b72026"/>
      <stop offset="1" stop-color="#e90037"/>
    </linearGradient>
    <linearGradient id="linear-gradient-3" x1="374.6" y1="872.28" x2="464.97" y2="962.66" xlink:href="#linear-gradient-2"/>
  </defs>
  <g>
    <path class="cls-3" d="M75,5h355v150H75C33.6,155,0,121.4,0,80h0C0,38.6,33.6,5,75,5Z"/>
    <g>
      <path class="cls-4" d="M121.2,106.9l-2.5-9.8h-16.9l-2.7,9.8h-15.5l17.1-52.6h18.7l17.4,52.6s-15.6,0-15.6,0ZM115.7,85.6l-2.3-8.7c-.5-1.8-1.1-4.3-1.8-7.3-.7-3-1.1-5.3-1.4-6.4,0,1.1-.7,3.2-1.4,5.9-.7,2.7-2.1,8.2-4.1,16.5h11.2-.2,0ZM162.8,107.5c-2.1,0-3.9-.2-5.5-.9-1.6-.7-3.2-1.8-4.8-3.7h-.7c.5,2.7.7,4.6.7,5.3v16.2h-13.9v-58.1h11.4l2.1,5.3h.7c2.5-3.9,6.2-5.9,10.7-5.9s8,1.8,10.5,5.5,3.9,8.9,3.9,15.3-1.4,11.7-4.1,15.5c-2.7,3.7-6.2,5.7-10.7,5.7l-.2-.2h-.1ZM158.2,76.7c-2.1,0-3.4.7-4.3,2.3-.9,1.4-1.1,3.7-1.4,6.4v1.1c0,3.4.5,5.9,1.4,7.5s2.3,2.3,4.3,2.3,3.2-.7,3.9-2.3c.9-1.6,1.1-4.1,1.1-7.5s-.5-5.9-1.1-7.5c-.9-1.6-2.1-2.3-4.1-2.3h.2ZM207.1,107.5c-2.1,0-3.9-.2-5.5-.9-1.6-.7-3.2-1.8-4.8-3.7h-.7c.5,2.7.7,4.6.7,5.3v16.2h-13.9v-58.1h11.4l2.1,5.3h.7c2.5-3.9,6.2-5.9,10.7-5.9s8,1.8,10.5,5.5,3.9,8.9,3.9,15.3-1.4,11.7-4.1,15.5c-2.7,3.7-6.2,5.7-10.7,5.7l-.2-.2h-.1ZM202.3,76.7c-2.1,0-3.4.7-4.3,2.3-.9,1.4-1.1,3.7-1.4,6.4v1.1c0,3.4.5,5.9,1.4,7.5s2.3,2.3,4.3,2.3,3.2-.7,3.9-2.3c.9-1.6,1.1-4.1,1.1-7.5s-.5-5.9-1.1-7.5c-.9-1.6-2.1-2.3-4.1-2.3h.2ZM241,106.9h-13.9v-55.8h13.9v55.8ZM242.8,66.4h14.6l6.9,23.3c.2,1.1.5,2.7.7,4.3h.2c0-1.6.5-3.2.9-4.3l7.1-23.3h14.2l-16,43.2c-2.1,5.5-4.6,9.4-7.5,11.7s-6.9,3.4-11.7,3.4-3.7,0-5.7-.7v-11c1.4.2,2.7.5,4.3.5s2.3-.2,3.2-.7,1.8-1.1,2.5-2.1c.7-.9,1.4-2.3,2.3-4.3l-16-40h0Z"/>
      <g>
        <path class="cls-6" d="M117.2,102.9l-2.5-9.8h-16.9l-2.7,9.8h-15.5l17.1-52.6h18.7l17.4,52.6s-15.6,0-15.6,0ZM111.7,81.6l-2.3-8.7c-.5-1.8-1.1-4.3-1.8-7.3-.7-3-1.1-5.3-1.4-6.4,0,1.1-.7,3.2-1.4,5.9-.7,2.7-2.1,8.2-4.1,16.5h11.2-.2,0ZM158.8,103.5c-2.1,0-3.9-.2-5.5-.9-1.6-.7-3.2-1.8-4.8-3.7h-.7c.5,2.7.7,4.6.7,5.3v16.2h-13.9v-58.1h11.4l2.1,5.3h.7c2.5-3.9,6.2-5.9,10.7-5.9s8,1.8,10.5,5.5c2.5,3.7,3.9,8.9,3.9,15.3s-1.4,11.7-4.1,15.5c-2.7,3.7-6.2,5.7-10.7,5.7l-.2-.2h-.1ZM154.2,72.7c-2.1,0-3.4.7-4.3,2.3-.9,1.4-1.1,3.7-1.4,6.4v1.1c0,3.4.5,5.9,1.4,7.5s2.3,2.3,4.3,2.3,3.2-.7,3.9-2.3c.9-1.6,1.1-4.1,1.1-7.5s-.5-5.9-1.1-7.5c-.9-1.6-2.1-2.3-4.1-2.3h.2ZM203.1,103.5c-2.1,0-3.9-.2-5.5-.9-1.6-.7-3.2-1.8-4.8-3.7h-.7c.5,2.7.7,4.6.7,5.3v16.2h-13.9v-58.1h11.4l2.1,5.3h.7c2.5-3.9,6.2-5.9,10.7-5.9s8,1.8,10.5,5.5c2.5,3.7,3.9,8.9,3.9,15.3s-1.4,11.7-4.1,15.5c-2.7,3.7-6.2,5.7-10.7,5.7l-.2-.2h-.1ZM198.3,72.7c-2.1,0-3.4.7-4.3,2.3-.9,1.4-1.1,3.7-1.4,6.4v1.1c0,3.4.5,5.9,1.4,7.5s2.3,2.3,4.3,2.3,3.2-.7,3.9-2.3c.9-1.6,1.1-4.1,1.1-7.5s-.5-5.9-1.1-7.5c-.9-1.6-2.1-2.3-4.1-2.3h.2ZM237,102.9h-13.9v-55.8h13.9v55.8ZM238.8,62.4h14.6l6.9,23.3c.2,1.1.5,2.7.7,4.3h.2c0-1.6.5-3.2.9-4.3l7.1-23.3h14.2l-16,43.2c-2.1,5.5-4.6,9.4-7.5,11.7s-6.9,3.4-11.7,3.4-3.7,0-5.7-.7v-11c1.4.2,2.7.5,4.3.5s2.3-.2,3.2-.7,1.8-1.1,2.5-2.1c.7-.9,1.4-2.3,2.3-4.3l-16-40h0Z"/>
        <path class="cls-4" d="M248.2,121.2c-3.9,0-4,0-5-.4-.2,0-.5-.2-.9-.3h-.3v-12h.6c1.4.3,2.7.6,4.3.6s2.1-.2,3-.6c.7-.3,1.6-.9,2.3-1.9.7-.9,1.3-2.2,2.1-4.1l-15.9-39.8.5-.2v-.5h15l7,23.7c.1.5.2,1.1.3,1.7.2-.7.4-1.4.6-1.8l7.2-23.6h15.3l-16.2,43.9c-2.1,5.5-4.7,9.5-7.7,11.9-3,2.3-7.1,3.5-12,3.5l-.2-.1ZM243,119.6c.2,0,.4.2.6.2.6.2,2.13.3,4.6.3,4.7,0,8.5-1.1,11.4-3.3,2.9-2.2,5.4-6.1,7.4-11.4l15.7-42.5h-13.1l-7,23c-.3.9-.9,2.5-.9,4.2v.5h-1.2v-.4c-.3-1.6-.5-3.2-.7-4.3l-6.7-22.9h-13.5l15.8,39.5v.2c-1,2-1.7,3.5-2.4,4.4-.8,1.1-1.9,1.8-2.7,2.2-1,.5-1.8.7-3.4.7s-2.7-.2-3.8-.4v10h-.1ZM193.4,121h-14.9v-59.1h12.3l2.1,5.3h0c2.6-3.9,6.4-5.9,11-5.9s8.3,1.9,10.9,5.7c2.6,3.8,4,9.2,4,15.6s-1.4,11.9-4.2,15.8c-3,4-6.6,5.9-11.1,5.9h-.2l-.2-.2c-2.3,0-4-.3-5.5-.9-1.7-.7-3.2-1.9-4.7-3.5.4,2.3.6,3.9.6,4.6v16.7h-.1ZM179.4,120h12.9v-15.7c0-.7-.3-2.6-.7-5.2v-.6h1.4v.2c1.6,1.7,3.1,2.8,4.8,3.5,1.4.6,3.1.9,5.3.9h.2l.2.2c4.1,0,7.4-1.9,10.1-5.5,2.7-3.8,4-8.9,4-15.2s-1.3-11.4-3.8-15c-2.4-3.5-5.7-5.3-10.1-5.3s-7.9,1.9-10.3,5.7v.2h-1.5l-2.1-5.3h-10.6v57.1h.2ZM149,121h-14.9v-59.1h12.3l2.1,5.3h0c2.6-3.9,6.4-5.9,11-5.9s8.3,1.9,10.9,5.7c2.6,3.8,4,9.2,4,15.6s-1.4,11.9-4.2,15.8c-3,4-6.6,5.9-11.1,5.9h-.2l-.2-.2c-2.3,0-4-.3-5.5-.9-1.7-.7-3.2-1.9-4.7-3.5.4,2.3.6,3.9.6,4.6v16.7h-.1ZM135.1,120h12.9v-15.7c0-.7-.3-2.6-.7-5.2v-.6h1.4v.2c1.6,1.7,3.1,2.8,4.8,3.5,1.4.6,3.1.9,5.3.9h.2l.2.2c4.1,0,7.4-1.9,10.1-5.5,2.7-3.8,4-8.9,4-15.2s-1.3-11.4-3.8-15c-2.4-3.5-5.7-5.3-10.1-5.3s-7.9,1.9-10.3,5.7v.2h-1.5l-2.1-5.3h-10.6v57.1h.2ZM237.5,103.4h-14.9v-56.8h14.9v56.8ZM223.5,102.4h12.9v-54.8h-12.9v54.8ZM133.4,103.4h-16.6v-.4c-.1,0-2.5-9.5-2.5-9.5h-16.1l-2.7,9.8h-16.6l17.5-53.6h19.5l17.7,53.6-.2.1ZM117.6,102.4h14.5l-17-51.6h-18l-16.8,51.6h14.5l2.7-9.8h17.7l2.5,9.8h-.1ZM198.3,92.8c-2.3,0-3.8-.8-4.8-2.5s-1.4-4.3-1.4-7.8v-1.1c.3-3,.5-5.2,1.5-6.7.9-1.6,2.4-2.5,4.5-2.5h.2c2,0,3.3.8,4.3,2.5.8,1.9,1.2,4.5,1.2,7.8s-.1,5.9-1.2,7.8c-.7,1.7-2.1,2.5-4.3,2.5ZM198.2,73.2c-1.8,0-3,.7-3.8,2s-1.1,3.4-1.3,6.2v1.1c0,3.3.4,5.8,1.3,7.3.8,1.4,2,2,3.9,2s2.8-.6,3.4-2c.8-1.4,1.1-3.5,1.1-7.3s-.6-6.2-1.1-7.3c-.8-1.4-1.8-2-3.5-2h0ZM154.2,92.8c-2.3,0-3.8-.8-4.8-2.5s-1.4-4.3-1.4-7.8v-1.1c.3-3,.5-5.2,1.5-6.7.9-1.6,2.4-2.5,4.5-2.5h.2c2,0,3.3.8,4.3,2.5.8,1.9,1.2,4.5,1.2,7.8s-.1,5.9-1.2,7.8c-.7,1.7-2.1,2.5-4.3,2.5ZM154.1,73.2c-1.8,0-3,.7-3.8,2s-1.1,3.4-1.3,6.2v1.1c0,3.3.4,5.8,1.3,7.3.8,1.4,2,2,3.9,2s2.8-.6,3.4-2c.8-1.4,1.1-3.5,1.1-7.3s-.6-6.2-1.1-7.3c-.8-1.4-1.8-2-3.5-2h0ZM111.9,82.1h-11.8l.2-.6c2.1-8.2,3.4-13.7,4.1-16.5.2-.8.4-1.6.6-2.3.4-1.5.7-2.8.7-3.5h1v.3c.3,1.3.7,3.3,1.3,6,.5,2.1,1,4,1.4,5.5.2.6.3,1.2.5,1.8l2.3,8.7h-.3s0,.6,0,.6ZM101.4,81.1h9.7l-2.1-8.1c-.1-.5-.3-1.1-.5-1.8-.4-1.5-.9-3.4-1.4-5.6-.3-1.5-.6-2.8-.9-3.9,0,.4-.2.7-.3,1.1-.2.7-.4,1.5-.6,2.3-.7,2.7-2,8-4,15.8l.1.2Z"/>
      </g>
    </g>
    <path class="cls-6" d="M3,83h0C3,41.6,36.6,8,78,8h352v-3H75C33.6,5,0,38.6,0,80h0c0,21.5,9,40.8,23.5,54.5-12.7-13.4-20.5-31.6-20.5-51.5Z"/>
    <path class="cls-4" d="M427,5v147H72c-20,0-38.1-7.8-51.5-20.5,13.7,14.5,33,23.5,54.5,23.5h355V5h-3Z"/>
  </g>
  <g>
    <path class="cls-2" d="M420,160c44.18,0,80-35.82,80-80S464.18,0,420,0s-80,35.82-80,80,35.82,80,80,80Z"/>
    <path class="cls-1" d="M419.79,143.36c35.31,0,63.89-28.59,63.89-63.89s-28.59-63.9-63.89-63.9-63.9,28.59-63.9,63.9,28.59,63.89,63.89,63.89h.01Z"/>
    <path class="cls-5" d="M463.88,33.24c10.93,11.47,17.66,26.99,17.66,44.1,0,35.31-28.59,63.89-63.89,63.89-17.11,0-32.63-6.73-44.1-17.66,11.64,12.19,28.03,19.8,46.23,19.8,35.31,0,63.89-28.59,63.89-63.89,0-18.2-7.61-34.59-19.8-46.23h.01Z"/>
    <path class="cls-4" d="M358.03,81.6c0-35.31,28.59-63.89,63.89-63.89,17.11,0,32.63,6.73,44.1,17.66-11.64-12.19-28.03-19.8-46.23-19.8-35.31,0-63.89,28.59-63.89,63.89,0,18.2,7.61,34.59,19.8,46.23-10.93-11.47-17.66-26.99-17.66-44.1h-.01,0Z"/>
    <path class="cls-6" d="M342.13,82.13c0-44.18,35.82-80,80-80,21.55,0,41.09,8.53,55.48,22.39-14.55-15.1-34.98-24.52-57.61-24.52-44.18,0-80,35.82-80,80,0,22.63,9.42,43.06,24.52,57.61-13.85-14.39-22.39-33.93-22.39-55.48Z"/>
    <path class="cls-4" d="M475.48,22.39c13.86,14.39,22.39,33.93,22.39,55.48,0,44.18-35.82,80-80,80-21.55,0-41.09-8.53-55.48-22.39,14.55,15.1,34.98,24.52,57.61,24.52,44.18,0,80-35.82,80-80,0-22.63-9.42-43.06-24.52-57.61Z"/>
    <g>
      <path class="cls-4" d="M415.9,103.6c-2,0-4.1-.8-5.7-2.3l-13.3-13.3c-3.1-3.1-3.1-8.2,0-11.3,3.1-3.1,8.2-3.1,11.3,0l7.6,7.6,20.9-20.9c3.1-3.1,8.2-3.1,11.3,0,3.1,3.1,3.1,8.2,0,11.3l-26.5,26.5c-1.6,1.6-3.6,2.3-5.7,2.3h0l.1.1Z"/>
      <g>
        <path class="cls-6" d="M411.3,99c-2,0-4.1-.8-5.7-2.3l-13.3-13.3c-3.1-3.1-3.1-8.2,0-11.3,3.1-3.1,8.2-3.1,11.3,0l7.6,7.6,20.9-20.9c3.1-3.1,8.2-3.1,11.3,0s3.1,8.2,0,11.3l-26.5,26.5c-1.6,1.6-3.6,2.3-5.7,2.3h0l.1.1Z"/>
        <path class="cls-4" d="M411.3,99.5h-1.2c-1.8-.3-3.5-1.2-4.9-2.5l-13.3-13.3c-1.6-1.6-2.5-3.7-2.5-6s.9-4.4,2.5-6c3.3-3.3,8.7-3.3,12,0l7.3,7.3,20.5-20.5c3.3-3.3,8.7-3.3,12,0,1.6,1.6,2.5,3.7,2.5,6s-.9,4.4-2.5,6l-26.5,26.5c-1.6,1.6-3.7,2.5-6,2.5h.1ZM398,70.2c-1.9,0-3.8.7-5.3,2.2-2.9,2.9-2.9,7.7,0,10.6l13.3,13.3c1.4,1.4,3.3,2.2,5.3,2.2h.4c1.9,0,3.6-.9,4.9-2.2l26.5-26.5c2.9-2.9,2.9-7.7,0-10.6-2.9-2.9-7.7-2.9-10.6,0l-21.2,21.2-8-8c-1.5-1.5-3.4-2.2-5.3-2.2h0Z"/>
      </g>
    </g>
  </g>
</svg>