<?xml version="1.0" encoding="UTF-8"?>
<svg id="Layer_1" xmlns="http://www.w3.org/2000/svg" xmlns:xlink="http://www.w3.org/1999/xlink" viewBox="0 0 500 160">
  <defs>
    <style>
      .cls-1 {
        stroke: #464342;
        stroke-miterlimit: 10;
      }

      .cls-1, .cls-2 {
        fill: #fff;
      }

      .cls-3 {
        fill: url(#linear-gradient-3);
      }

      .cls-4 {
        fill: url(#linear-gradient-2);
      }

      .cls-5 {
        fill: url(#linear-gradient);
      }

      .cls-6 {
        fill: #464342;
      }

      .cls-7 {
        fill: #e7e7e7;
      }
    </style>
    <linearGradient id="linear-gradient" x1="102.96" y1="-621.99" x2="370.99" y2="-890.01" gradientTransform="translate(0 -676) scale(1 -1)" gradientUnits="userSpaceOnUse">
      <stop offset="0" stop-color="#797a7a"/>
      <stop offset=".3" stop-color="#b5b3b3"/>
      <stop offset=".7" stop-color="#797a7a"/>
      <stop offset="1" stop-color="#b5b3b3"/>
    </linearGradient>
    <linearGradient id="linear-gradient-2" x1="363.43" y1="-812.57" x2="476.57" y2="-699.43" gradientTransform="translate(0 -676) scale(1 -1)" gradientUnits="userSpaceOnUse">
      <stop offset="0" stop-color="#797a7a"/>
      <stop offset=".33" stop-color="#b5b3b3"/>
      <stop offset=".66" stop-color="#797a7a"/>
      <stop offset="1" stop-color="#b5b3b3"/>
    </linearGradient>
    <linearGradient id="linear-gradient-3" x1="374.6" y1="-710.28" x2="464.97" y2="-800.66" gradientTransform="translate(0 -676) scale(1 -1)" gradientUnits="userSpaceOnUse">
      <stop offset="0" stop-color="#797a7a"/>
      <stop offset=".33" stop-color="#b5b3b3"/>
      <stop offset=".66" stop-color="#797a7a"/>
      <stop offset="1" stop-color="#b5b3b3"/>
    </linearGradient>
  </defs>
  <g>
    <path class="cls-5" d="M75,5h355v150H75C33.6,155,0,121.4,0,80h0C0,38.6,33.6,5,75,5Z"/>
    <path class="cls-2" d="M3,83h0C3,41.6,36.6,8,78,8h352v-3H75C33.6,5,0,38.6,0,80h0c0,21.5,9,40.8,23.5,54.5-12.7-13.4-20.5-31.6-20.5-51.5Z"/>
    <path class="cls-6" d="M427,5v147H72c-20,0-38.1-7.8-51.5-20.5,13.7,14.5,33,23.5,54.5,23.5h355V5h-3Z"/>
    <g>
      <path class="cls-6" d="M97.24,67.21c-3.46,0-6.16,1.42-8.1,4.27-1.94,2.82-2.91,6.72-2.91,11.71,0,10.36,3.94,15.53,11.82,15.53,2.38,0,4.69-.33,6.92-.99,2.23-.66,4.48-1.46,6.74-2.39v12.29c-4.49,1.99-9.57,2.98-15.24,2.98-8.12,0-14.36-2.36-18.7-7.07-4.32-4.71-6.48-11.52-6.48-20.43,0-5.57,1.04-10.47,3.13-14.69,2.11-4.22,5.13-7.46,9.06-9.72,3.95-2.28,8.59-3.42,13.91-3.42,5.82,0,11.37,1.26,16.67,3.79l-4.45,11.45c-1.99-.93-3.98-1.72-5.96-2.36-1.99-.64-4.12-.96-6.41-.96ZM145.58,109.88l-2.76-5.52h-.29c-1.94,2.41-3.91,4.05-5.93,4.93-2.01.88-4.61,1.33-7.8,1.33-3.93,0-7.02-1.18-9.28-3.53-2.26-2.36-3.39-5.67-3.39-9.94s1.55-7.74,4.64-9.9c3.09-2.18,7.57-3.41,13.44-3.68l6.96-.22v-.59c0-3.44-1.69-5.15-5.08-5.15-3.04,0-6.91,1.03-11.59,3.09l-4.16-9.5c4.86-2.5,10.99-3.75,18.4-3.75,5.35,0,9.48,1.33,12.41,3.98,2.94,2.65,4.42,6.36,4.42,11.12v27.35h-9.98ZM134.9,100.45c1.74,0,3.23-.55,4.45-1.66,1.25-1.1,1.88-2.54,1.88-4.31v-3.24l-3.31.15c-4.74.17-7.1,1.91-7.1,5.23,0,2.55,1.36,3.83,4.09,3.83ZM188.65,109.88v-22.75c0-2.77-.4-4.86-1.21-6.26-.79-1.42-2.06-2.14-3.83-2.14-2.43,0-4.18.97-5.26,2.91-1.08,1.94-1.62,5.26-1.62,9.98v18.26h-14.39v-41.71h10.86l1.8,5.15h.85c1.23-1.96,2.92-3.44,5.08-4.42,2.18-.98,4.69-1.47,7.51-1.47,4.61,0,8.2,1.34,10.75,4.01,2.58,2.67,3.87,6.44,3.87,11.3v27.13h-14.39ZM228.81,110.61c-6.82,0-12-1.84-15.53-5.52-3.51-3.68-5.26-8.97-5.26-15.87s1.9-12.28,5.71-16.09c3.8-3.8,9.21-5.71,16.23-5.71,4.84,0,9.39,1.06,13.66,3.17l-4.23,10.64c-1.74-.76-3.35-1.36-4.82-1.8-1.47-.47-3.01-.7-4.6-.7-2.33,0-4.13.91-5.41,2.72-1.28,1.82-1.91,4.38-1.91,7.69,0,6.68,2.47,10.01,7.4,10.01,4.22,0,8.27-1.23,12.15-3.68v11.45c-3.71,2.45-8.16,3.68-13.36,3.68ZM267.57,110.61c-6.94,0-12.34-1.84-16.2-5.52-3.83-3.71-5.74-8.97-5.74-15.79s1.78-12.44,5.34-16.2c3.56-3.78,8.64-5.67,15.24-5.67s11.13,1.64,14.54,4.93c3.44,3.26,5.15,7.98,5.15,14.14v6.41h-25.73c.1,2.33.94,4.16,2.54,5.48,1.62,1.33,3.82,1.99,6.59,1.99,2.53,0,4.85-.23,6.96-.7,2.13-.49,4.44-1.31,6.92-2.47v10.34c-2.26,1.15-4.59,1.95-6.99,2.39-2.41.44-5.28.66-8.62.66ZM266.73,77.23c-1.69,0-3.12.54-4.27,1.62-1.13,1.06-1.79,2.72-1.99,5.01h12.37c-.05-2.01-.63-3.62-1.73-4.82-1.08-1.2-2.54-1.8-4.38-1.8ZM305.42,109.88h-14.39v-57.28h14.39v57.28Z"/>
      <path class="cls-1" d="M93.24,63.21c-3.46,0-6.16,1.42-8.1,4.27-1.94,2.82-2.91,6.72-2.91,11.71,0,10.36,3.94,15.53,11.82,15.53,2.38,0,4.69-.33,6.92-.99,2.23-.66,4.48-1.46,6.74-2.39v12.29c-4.49,1.99-9.57,2.98-15.24,2.98-8.12,0-14.36-2.36-18.7-7.07-4.32-4.71-6.48-11.52-6.48-20.43,0-5.57,1.04-10.47,3.13-14.69,2.11-4.22,5.13-7.46,9.06-9.72,3.95-2.28,8.59-3.42,13.91-3.42,5.82,0,11.37,1.26,16.67,3.79l-4.45,11.45c-1.99-.93-3.98-1.72-5.96-2.36-1.99-.64-4.12-.96-6.41-.96ZM141.58,105.88l-2.76-5.52h-.29c-1.94,2.41-3.91,4.05-5.93,4.93-2.01.88-4.61,1.33-7.8,1.33-3.93,0-7.02-1.18-9.28-3.53-2.26-2.36-3.39-5.67-3.39-9.94s1.55-7.74,4.64-9.9c3.09-2.18,7.57-3.41,13.44-3.68l6.96-.22v-.59c0-3.44-1.69-5.15-5.08-5.15-3.04,0-6.91,1.03-11.59,3.09l-4.16-9.5c4.86-2.5,10.99-3.75,18.4-3.75,5.35,0,9.48,1.33,12.41,3.98,2.94,2.65,4.42,6.36,4.42,11.12v27.35h-9.98ZM130.9,96.45c1.74,0,3.23-.55,4.45-1.66,1.25-1.1,1.88-2.54,1.88-4.31v-3.24l-3.31.15c-4.74.17-7.1,1.91-7.1,5.23,0,2.55,1.36,3.83,4.09,3.83ZM184.65,105.88v-22.75c0-2.77-.4-4.86-1.21-6.26-.79-1.42-2.06-2.14-3.83-2.14-2.43,0-4.18.97-5.26,2.91-1.08,1.94-1.62,5.26-1.62,9.98v18.26h-14.39v-41.71h10.86l1.8,5.15h.85c1.23-1.96,2.92-3.44,5.08-4.42,2.18-.98,4.69-1.47,7.51-1.47,4.61,0,8.2,1.34,10.75,4.01,2.58,2.67,3.87,6.44,3.87,11.3v27.13h-14.39ZM224.81,106.61c-6.82,0-12-1.84-15.53-5.52-3.51-3.68-5.26-8.97-5.26-15.87s1.9-12.28,5.71-16.09c3.8-3.8,9.21-5.71,16.23-5.71,4.84,0,9.39,1.06,13.66,3.17l-4.23,10.64c-1.74-.76-3.35-1.36-4.82-1.8-1.47-.47-3.01-.7-4.6-.7-2.33,0-4.13.91-5.41,2.72-1.28,1.82-1.91,4.38-1.91,7.69,0,6.68,2.47,10.01,7.4,10.01,4.22,0,8.27-1.23,12.15-3.68v11.45c-3.71,2.45-8.16,3.68-13.36,3.68ZM263.57,106.61c-6.94,0-12.34-1.84-16.2-5.52-3.83-3.71-5.74-8.97-5.74-15.79s1.78-12.44,5.34-16.2c3.56-3.78,8.64-5.67,15.24-5.67s11.13,1.64,14.54,4.93c3.44,3.26,5.15,7.98,5.15,14.14v6.41h-25.73c.1,2.33.94,4.16,2.54,5.48,1.62,1.33,3.82,1.99,6.59,1.99,2.53,0,4.85-.23,6.96-.7,2.13-.49,4.44-1.31,6.92-2.47v10.34c-2.26,1.15-4.59,1.95-6.99,2.39-2.41.44-5.28.66-8.62.66ZM262.73,73.23c-1.69,0-3.12.54-4.27,1.62-1.13,1.06-1.79,2.72-1.99,5.01h12.37c-.05-2.01-.63-3.62-1.73-4.82-1.08-1.2-2.54-1.8-4.38-1.8ZM301.42,105.88h-14.39v-57.28h14.39v57.28Z"/>
    </g>
  </g>
  <g>
    <path class="cls-4" d="M420,160c44.18,0,80-35.82,80-80S464.18,0,420,0s-80,35.82-80,80,35.82,80,80,80Z"/>
    <path class="cls-3" d="M419.79,143.36c35.31,0,63.89-28.59,63.89-63.89s-28.59-63.9-63.89-63.9-63.9,28.59-63.9,63.9,28.59,63.89,63.89,63.89h.01Z"/>
    <path class="cls-7" d="M463.88,33.24c10.93,11.47,17.66,26.99,17.66,44.1,0,35.31-28.59,63.89-63.89,63.89-17.11,0-32.63-6.73-44.1-17.66,11.64,12.19,28.03,19.8,46.23,19.8,35.31,0,63.89-28.59,63.89-63.89,0-18.2-7.61-34.59-19.8-46.23h.01,0Z"/>
    <path class="cls-6" d="M358.03,81.6c0-35.31,28.59-63.89,63.89-63.89,17.11,0,32.63,6.73,44.1,17.66-11.64-12.19-28.03-19.8-46.23-19.8-35.31,0-63.89,28.59-63.89,63.89,0,18.2,7.61,34.59,19.8,46.23-10.93-11.47-17.66-26.99-17.66-44.1h-.01,0Z"/>
    <path class="cls-2" d="M342.13,82.13c0-44.18,35.82-80,80-80,21.55,0,41.09,8.53,55.48,22.39C463.06,9.42,442.63,0,420,0,375.82,0,340,35.82,340,80c0,22.63,9.42,43.06,24.52,57.61-13.85-14.39-22.39-33.93-22.39-55.48Z"/>
    <path class="cls-6" d="M475.48,22.39c13.86,14.39,22.39,33.93,22.39,55.48,0,44.18-35.82,80-80,80-21.55,0-41.09-8.53-55.48-22.39,14.55,15.1,34.98,24.52,57.61,24.52,44.18,0,80-35.82,80-80,0-22.63-9.42-43.06-24.52-57.61Z"/>
    <g>
      <path class="cls-6" d="M435.12,103.47c-2.32,0-4.5-.89-6.13-2.52l-7.71-7.71-7.71,7.71c-1.63,1.63-3.81,2.52-6.13,2.52s-4.5-.89-6.13-2.52-2.52-3.8-2.52-6.13.89-4.5,2.52-6.13l7.71-7.71-7.71-7.71c-1.63-1.63-2.52-3.8-2.52-6.13s.89-4.5,2.52-6.13,3.81-2.57,6.13-2.57,4.5.89,6.13,2.57l7.71,7.71,7.71-7.71c1.63-1.63,3.81-2.52,6.13-2.52s4.5.89,6.13,2.52,2.52,3.8,2.52,6.13-.89,4.5-2.52,6.13l-7.71,7.71,7.71,7.71c3.36,3.36,3.36,8.89,0,12.25-1.63,1.63-3.81,2.52-6.13,2.52h0Z"/>
      <g>
        <path class="cls-2" d="M418.62,89.89l-.35-.35-.35.35-7.71,7.71c-1.54,1.53-3.58,2.37-5.78,2.37s-4.24-.84-5.78-2.37c-1.54-1.53-2.38-3.58-2.38-5.77s.84-4.24,2.38-5.77l7.71-7.71.35-.35-.35-.35-7.71-7.71c-1.54-1.53-2.38-3.58-2.38-5.77s.84-4.24,2.38-5.77c1.54-1.54,3.59-2.42,5.78-2.42s4.24.84,5.77,2.42h0l7.71,7.71.35.35.35-.35,7.71-7.71c1.54-1.53,3.58-2.37,5.78-2.37s4.24.84,5.78,2.37,2.38,3.58,2.38,5.77-.84,4.24-2.38,5.77l-7.71,7.71-.35.35.35.35,7.71,7.71c3.17,3.16,3.17,8.38,0,11.54-1.54,1.53-3.58,2.37-5.78,2.37s-4.24-.84-5.78-2.37l-7.71-7.71h.01Z"/>
        <path class="cls-6" d="M432.12,100.47c-2.33,0-4.5-.89-6.13-2.52l-7.71-7.71h0l-7.71,7.71c-1.63,1.62-3.8,2.52-6.13,2.52s-4.51-.89-6.13-2.52-2.52-3.8-2.52-6.12.9-4.5,2.52-6.12l7.71-7.71-7.71-7.71c-1.63-1.62-2.52-3.8-2.52-6.12s.9-4.5,2.52-6.13c1.66-1.66,3.84-2.57,6.13-2.57s4.52.91,6.13,2.57l7.71,7.71,7.71-7.71c1.63-1.62,3.8-2.52,6.13-2.52s4.51.89,6.13,2.52c1.63,1.62,2.52,3.8,2.52,6.13s-.9,4.5-2.52,6.12l-7.71,7.71,7.71,7.71c1.63,1.62,2.52,3.8,2.52,6.13s-.9,4.5-2.52,6.12c-1.63,1.62-3.8,2.52-6.13,2.52h0ZM418.27,88.83l8.42,8.41c1.44,1.44,3.36,2.23,5.42,2.23s3.99-.79,5.43-2.23,2.23-3.36,2.23-5.42-.79-3.98-2.23-5.42l-8.42-8.41,8.42-8.41c1.44-1.44,2.23-3.36,2.23-5.42s-.79-3.98-2.23-5.42-3.37-2.23-5.43-2.23-3.99.79-5.42,2.23l-8.42,8.41-8.42-8.41c-1.43-1.47-3.35-2.28-5.43-2.28s-3.96.81-5.42,2.28c-1.44,1.44-2.23,3.36-2.23,5.42s.79,3.98,2.23,5.42l8.42,8.41-8.42,8.41c-1.44,1.44-2.23,3.36-2.23,5.42s.79,3.98,2.23,5.42c1.44,1.44,3.36,2.23,5.42,2.23s3.99-.79,5.43-2.23l8.42-8.41Z"/>
      </g>
    </g>
  </g>
</svg>