<?xml version="1.0" encoding="UTF-8"?>
<svg id="Layer_1" xmlns="http://www.w3.org/2000/svg" xmlns:xlink="http://www.w3.org/1999/xlink" viewBox="0 0 160 160">
  <defs>
    <style>
      .cls-1 {
        fill: none;
      }

      .cls-2 {
        fill: url(#linear-gradient-2);
      }

      .cls-3 {
        fill: url(#linear-gradient);
      }

      .cls-4 {
        fill: #464342;
      }

      .cls-5 {
        fill: #e7e7e7;
      }

      .cls-6 {
        fill: #fff;
      }

      .cls-7 {
        clip-path: url(#clippath);
      }
    </style>
    <clipPath id="clippath">
      <rect class="cls-1" width="160" height="160"/>
    </clipPath>
    <linearGradient id="linear-gradient" x1="23.43" y1="25.43" x2="136.57" y2="138.57" gradientTransform="translate(0 162) scale(1 -1)" gradientUnits="userSpaceOnUse">
      <stop offset="0" stop-color="#b72026"/>
      <stop offset=".33" stop-color="#e90037"/>
      <stop offset=".66" stop-color="#b72026"/>
      <stop offset="1" stop-color="#e90037"/>
    </linearGradient>
    <linearGradient id="linear-gradient-2" x1="34.6" y1="127.72" x2="124.97" y2="37.34" gradientTransform="translate(0 162) scale(1 -1)" gradientUnits="userSpaceOnUse">
      <stop offset="0" stop-color="#b72026"/>
      <stop offset=".33" stop-color="#e90037"/>
      <stop offset=".66" stop-color="#b72026"/>
      <stop offset="1" stop-color="#e90037"/>
    </linearGradient>
  </defs>
  <g class="cls-7">
    <g>
      <path class="cls-3" d="M80,160c44.18,0,80-35.82,80-80S124.18,0,80,0,0,35.82,0,80s35.82,80,80,80Z"/>
      <path class="cls-2" d="M79.79,143.36c35.31,0,63.89-28.59,63.89-63.89S115.09,15.57,79.79,15.57,15.89,44.16,15.89,79.47s28.59,63.89,63.89,63.89h.01Z"/>
      <path class="cls-4" d="M95.35,104c-2.32,0-4.5-.89-6.13-2.52l-7.71-7.71-7.71,7.71c-1.63,1.63-3.81,2.52-6.13,2.52s-4.5-.89-6.13-2.52c-1.63-1.63-2.52-3.8-2.52-6.13s.89-4.5,2.52-6.13l7.71-7.71-7.71-7.71c-1.63-1.63-2.52-3.8-2.52-6.13s.89-4.5,2.52-6.13,3.81-2.57,6.13-2.57,4.5.89,6.13,2.57l7.71,7.71,7.71-7.71c1.63-1.63,3.81-2.52,6.13-2.52s4.5.89,6.13,2.52c1.63,1.63,2.52,3.8,2.52,6.13s-.89,4.5-2.52,6.13l-7.71,7.71,7.71,7.71c3.36,3.36,3.36,8.89,0,12.25-1.63,1.63-3.81,2.52-6.13,2.52Z"/>
      <g>
        <path class="cls-6" d="M78.85,90.42l-.35-.35-.35.35-7.71,7.71c-1.54,1.53-3.58,2.37-5.78,2.37s-4.24-.84-5.78-2.37c-1.54-1.53-2.38-3.58-2.38-5.77s.84-4.24,2.38-5.77l7.71-7.71.35-.35-.35-.35-7.71-7.71c-1.54-1.53-2.38-3.58-2.38-5.77s.84-4.24,2.38-5.77c1.54-1.54,3.59-2.42,5.78-2.42s4.24.84,5.77,2.42h0s0,0,0,0l7.71,7.71.35.35.35-.35,7.71-7.71c1.54-1.53,3.58-2.37,5.78-2.37s4.24.84,5.78,2.37c1.54,1.53,2.38,3.58,2.38,5.77s-.84,4.24-2.38,5.77l-7.71,7.71-.35.35.35.35,7.71,7.71c3.17,3.16,3.17,8.38,0,11.54-1.54,1.53-3.58,2.37-5.78,2.37s-4.24-.84-5.78-2.37l-7.71-7.71Z"/>
        <path class="cls-4" d="M92.35,101c-2.33,0-4.5-.89-6.13-2.52l-7.71-7.71h0s-7.71,7.71-7.71,7.71c-1.63,1.62-3.8,2.52-6.13,2.52s-4.51-.89-6.13-2.52-2.52-3.8-2.52-6.12.9-4.5,2.52-6.12l7.71-7.71-7.71-7.71c-1.63-1.62-2.52-3.8-2.52-6.12s.9-4.5,2.52-6.13c1.66-1.66,3.84-2.57,6.13-2.57s4.52.91,6.13,2.57l7.71,7.71,7.71-7.71c1.63-1.62,3.8-2.52,6.13-2.52s4.51.89,6.13,2.52c1.63,1.62,2.52,3.8,2.52,6.13s-.9,4.5-2.52,6.12l-7.71,7.71,7.71,7.71c1.63,1.62,2.52,3.8,2.52,6.13s-.9,4.5-2.52,6.12c-1.63,1.62-3.8,2.52-6.13,2.52ZM78.5,89.36l8.42,8.41c1.44,1.44,3.36,2.23,5.42,2.23s3.99-.79,5.43-2.23,2.23-3.36,2.23-5.42-.79-3.98-2.23-5.42l-8.42-8.41,8.42-8.41c1.44-1.44,2.23-3.36,2.23-5.42s-.79-3.98-2.23-5.42c-1.44-1.44-3.37-2.23-5.43-2.23s-3.99.79-5.42,2.23l-8.42,8.41-8.42-8.41c-1.43-1.47-3.35-2.28-5.43-2.28s-3.96.81-5.42,2.28c-1.44,1.44-2.23,3.36-2.23,5.42s.79,3.98,2.23,5.42l8.42,8.41-8.42,8.41c-1.44,1.44-2.23,3.36-2.23,5.42s.79,3.98,2.23,5.42c1.44,1.44,3.36,2.23,5.42,2.23s3.99-.79,5.43-2.23l8.42-8.41Z"/>
      </g>
      <path class="cls-5" d="M123.88,33.24c10.93,11.47,17.66,26.99,17.66,44.1,0,35.31-28.59,63.89-63.89,63.89-17.11,0-32.63-6.73-44.1-17.66,11.64,12.19,28.03,19.8,46.23,19.8,35.31,0,63.89-28.59,63.89-63.89,0-18.2-7.61-34.59-19.8-46.23h0Z"/>
      <path class="cls-4" d="M18.03,81.6c0-35.31,28.59-63.89,63.89-63.89,17.11,0,32.63,6.73,44.1,17.66-11.64-12.19-28.03-19.8-46.23-19.8-35.31,0-63.89,28.59-63.89,63.89,0,18.2,7.61,34.59,19.8,46.23-10.93-11.47-17.66-26.99-17.66-44.1h-.01Z"/>
      <path class="cls-6" d="M2.13,82.13C2.13,37.95,37.95,2.13,82.13,2.13c21.55,0,41.09,8.53,55.48,22.39C123.06,9.42,102.63,0,80,0,35.82,0,0,35.82,0,80c0,22.63,9.42,43.06,24.52,57.61C10.67,123.22,2.13,103.68,2.13,82.13Z"/>
      <path class="cls-4" d="M135.48,22.39c13.86,14.39,22.39,33.93,22.39,55.48,0,44.18-35.82,80-80,80-21.55,0-41.09-8.53-55.48-22.39,14.55,15.1,34.98,24.52,57.61,24.52,44.18,0,80-35.82,80-80,0-22.63-9.42-43.06-24.52-57.61Z"/>
    </g>
  </g>
</svg>