<?xml version="1.0" encoding="UTF-8"?>
<svg id="Layer_1" xmlns="http://www.w3.org/2000/svg" xmlns:xlink="http://www.w3.org/1999/xlink" viewBox="0 0 500 160">
  <defs>
    <style>
      .cls-1, .cls-2 {
        fill: #fff;
      }

      .cls-1, .cls-3 {
        fill-rule: evenodd;
      }

      .cls-4 {
        fill: url(#linear-gradient-3);
      }

      .cls-5 {
        fill: url(#linear-gradient-2);
      }

      .cls-6 {
        fill: url(#linear-gradient);
      }

      .cls-7, .cls-3 {
        fill: #464342;
      }

      .cls-8 {
        fill: #e7e7e7;
      }
    </style>
    <linearGradient id="linear-gradient" x1="102.96" y1="-621.99" x2="370.99" y2="-890.01" gradientTransform="translate(0 -676) scale(1 -1)" gradientUnits="userSpaceOnUse">
      <stop offset="0" stop-color="#b72026"/>
      <stop offset=".3" stop-color="#e90037"/>
      <stop offset=".7" stop-color="#b72026"/>
      <stop offset="1" stop-color="#e90037"/>
    </linearGradient>
    <linearGradient id="linear-gradient-2" x1="363.43" y1="-812.57" x2="476.57" y2="-699.43" gradientTransform="translate(0 -676) scale(1 -1)" gradientUnits="userSpaceOnUse">
      <stop offset="0" stop-color="#b72026"/>
      <stop offset=".33" stop-color="#e90037"/>
      <stop offset=".66" stop-color="#b72026"/>
      <stop offset="1" stop-color="#e90037"/>
    </linearGradient>
    <linearGradient id="linear-gradient-3" x1="374.6" y1="-710.28" x2="464.97" y2="-800.66" gradientTransform="translate(0 -676) scale(1 -1)" gradientUnits="userSpaceOnUse">
      <stop offset="0" stop-color="#b72026"/>
      <stop offset=".33" stop-color="#e90037"/>
      <stop offset=".66" stop-color="#b72026"/>
      <stop offset="1" stop-color="#e90037"/>
    </linearGradient>
  </defs>
  <g>
    <path class="cls-6" d="M75,5h355v150H75C33.6,155,0,121.4,0,80h0C0,38.6,33.6,5,75,5Z"/>
    <path class="cls-2" d="M3,83h0C3,41.6,36.6,8,78,8h352v-3H75C33.6,5,0,38.6,0,80h0c0,21.5,9,40.8,23.5,54.5-12.7-13.4-20.5-31.6-20.5-51.5Z"/>
    <path class="cls-7" d="M427,5v147H72c-20,0-38.1-7.8-51.5-20.5,13.7,14.5,33,23.5,54.5,23.5h355V5h-3Z"/>
    <path class="cls-7" d="M110.66,87.66v19.09h-14.17v-52.45h17.18c14.25,0,21.38,5.17,21.38,15.5,0,6.07-2.97,10.77-8.9,14.1l15.28,22.85h-16.07l-11.12-19.09h-3.59ZM110.66,77.01h2.65c4.95,0,7.43-2.19,7.43-6.57,0-3.61-2.43-5.42-7.28-5.42h-2.8v11.98ZM162.07,107.47c-6.77,0-12.03-1.79-15.79-5.38-3.73-3.61-5.6-8.74-5.6-15.39s1.73-12.13,5.2-15.79c3.47-3.68,8.42-5.52,14.85-5.52s10.85,1.6,14.17,4.81c3.35,3.18,5.02,7.77,5.02,13.78v6.24h-25.08c.1,2.27.92,4.05,2.48,5.35,1.58,1.29,3.72,1.94,6.42,1.94,2.46,0,4.72-.23,6.78-.68,2.08-.48,4.33-1.28,6.74-2.4v10.08c-2.2,1.12-4.47,1.9-6.82,2.33-2.34.43-5.14.65-8.39.65ZM161.24,74.93c-1.65,0-3.04.53-4.16,1.58-1.1,1.03-1.75,2.65-1.94,4.88h12.05c-.05-1.96-.61-3.53-1.69-4.7-1.05-1.17-2.48-1.76-4.27-1.76ZM204.83,96.38c1.89,0,4.15-.47,6.78-1.4v10.22c-1.89.81-3.7,1.39-5.42,1.72-1.7.36-3.7.54-5.99.54-4.71,0-8.11-1.15-10.19-3.44-2.08-2.32-3.12-5.87-3.12-10.65v-16.75h-4.91v-5.7l6.24-4.41,3.62-8.54h9.18v8.14h9.97v10.51h-9.97v15.82c0,2.63,1.27,3.95,3.8,3.95ZM240.32,65.39c1.22,0,2.38.1,3.48.29l.79.14-1.25,13.24c-1.15-.29-2.74-.43-4.77-.43-3.06,0-5.29.71-6.67,2.12-1.39,1.39-2.08,3.4-2.08,6.03v19.98h-14.03v-40.65h10.44l2.19,6.49h.68c1.17-2.15,2.8-3.89,4.88-5.2,2.11-1.34,4.22-2.01,6.35-2.01ZM242.44,66.1h14.78l6.89,23.32c.34,1.22.56,2.69.68,4.41h.29c.19-1.65.48-3.1.86-4.34l7.07-23.39h14.31l-16.07,43.23c-2.06,5.5-4.59,9.39-7.6,11.66-2.99,2.27-6.9,3.41-11.73,3.41-1.86,0-3.78-.2-5.74-.61v-11.01c1.27.29,2.72.43,4.34.43,1.24,0,2.33-.24,3.26-.72.93-.48,1.74-1.16,2.44-2.04.69-.86,1.44-2.28,2.22-4.27l-16-40.07Z"/>
    <g>
      <path class="cls-2" d="M106.66,83.66v19.09h-14.17v-52.45h17.18c14.25,0,21.38,5.17,21.38,15.5,0,6.07-2.97,10.77-8.9,14.1l15.28,22.85h-16.07l-11.12-19.09h-3.59ZM106.66,73.01h2.65c4.95,0,7.43-2.19,7.43-6.57,0-3.61-2.43-5.42-7.28-5.42h-2.8v11.98ZM158.07,103.47c-6.77,0-12.03-1.79-15.79-5.38-3.73-3.61-5.6-8.74-5.6-15.39s1.73-12.13,5.2-15.79c3.47-3.68,8.42-5.52,14.85-5.52s10.85,1.6,14.17,4.81c3.35,3.18,5.02,7.77,5.02,13.78v6.24h-25.08c.1,2.27.92,4.05,2.48,5.35,1.58,1.29,3.72,1.94,6.42,1.94,2.46,0,4.72-.23,6.78-.68,2.08-.48,4.33-1.28,6.74-2.4v10.08c-2.2,1.12-4.47,1.9-6.82,2.33-2.34.43-5.14.65-8.39.65ZM157.24,70.93c-1.65,0-3.04.53-4.16,1.58-1.1,1.03-1.75,2.65-1.94,4.88h12.05c-.05-1.96-.61-3.53-1.69-4.7-1.05-1.17-2.48-1.76-4.27-1.76ZM200.83,92.38c1.89,0,4.15-.47,6.78-1.4v10.22c-1.89.81-3.7,1.39-5.42,1.72-1.7.36-3.7.54-5.99.54-4.71,0-8.11-1.15-10.19-3.44-2.08-2.32-3.12-5.87-3.12-10.65v-16.75h-4.91v-5.7l6.24-4.41,3.62-8.54h9.18v8.14h9.97v10.51h-9.97v15.82c0,2.63,1.27,3.95,3.8,3.95ZM236.32,61.39c1.22,0,2.38.1,3.48.29l.79.14-1.25,13.24c-1.15-.29-2.74-.43-4.77-.43-3.06,0-5.29.71-6.67,2.12-1.39,1.39-2.08,3.4-2.08,6.03v19.98h-14.03v-40.65h10.44l2.19,6.49h.68c1.17-2.15,2.8-3.89,4.88-5.2,2.11-1.34,4.22-2.01,6.35-2.01ZM240.58,62.1h12.63l6.89,23.32c.34,1.22.56,2.69.68,4.41h.29c.19-1.65.48-3.1.86-4.34l7.07-23.39h14.31l-16.07,43.23c-2.06,5.5-4.59,9.39-7.6,11.66-2.99,2.27-6.9,3.41-11.73,3.41-1.86,0-3.78-.2-5.74-.61v-11.01c1.27.29,2.72.43,4.34.43,1.24,0,2.33-.24,3.26-.72.93-.48,1.74-1.16,2.44-2.04.69-.86,1.44-2.28,2.22-4.27l-14.29-35.78.43-4.3Z"/>
      <path class="cls-7" d="M247.91,120.9c-1.89,0-3.86-.21-5.84-.62l-.4-.08v-12.05l.61.14c1.23.28,2.65.42,4.23.42,1.16,0,2.18-.22,3.04-.66.86-.44,1.63-1.08,2.27-1.91.64-.8,1.34-2.13,2.08-3.96l-13.45-33.67-.68,7.17-.56-.14c-1.1-.28-2.67-.42-4.65-.42-2.91,0-5.03.66-6.32,1.97-1.29,1.29-1.94,3.19-1.94,5.68v20.48h-15.03v-41.65h11.3l2.22,6.49c1.2-2.1,2.85-3.82,4.91-5.12,2.18-1.38,4.4-2.09,6.62-2.09,1.25,0,2.45.1,3.57.29l1.24.23-.02.2h12.48l6.99,23.68c.16.58.29,1.21.41,1.9.14-.65.29-1.26.47-1.83l7.17-23.74h15.4l-16.32,43.9c-2.08,5.57-4.7,9.57-7.77,11.89-3.06,2.33-7.11,3.51-12.03,3.51ZM242.67,119.38c1.78.34,3.54.52,5.24.52,4.7,0,8.54-1.11,11.43-3.31,2.92-2.21,5.43-6.05,7.44-11.44l15.82-42.55h-13.22l-6.96,23.03c-.37,1.21-.66,2.64-.84,4.25l-.05.44h-1.2l-.03-.47c-.12-1.68-.34-3.13-.67-4.31l-6.78-22.95h-11.81l-.38,3.72,14.31,35.85-.07.18c-.82,2.05-1.57,3.49-2.3,4.4-.73.93-1.61,1.67-2.6,2.18-1,.51-2.18.77-3.49.77-1.4,0-2.69-.11-3.84-.32v9.99ZM212.28,102.25h13.03v-19.48c0-2.76.75-4.9,2.23-6.38,1.47-1.5,3.84-2.26,7.03-2.26,1.75,0,3.21.11,4.33.32l.76-7.97h0s.4-4.25.4-4.25l-.34-.06c-1.06-.18-2.2-.28-3.39-.28-2.02,0-4.07.65-6.08,1.93-2,1.26-3.58,2.95-4.71,5.02l-.14.26h-1.34l-2.19-6.49h-9.58v39.65ZM196.21,103.97c-4.84,0-8.39-1.21-10.56-3.61-2.16-2.41-3.25-6.1-3.25-10.99v-16.25h-4.92v-6.46l6.34-4.48,3.7-8.71h10.02v8.14h9.97v11.51h-9.97v15.32c0,2.35,1.05,3.45,3.3,3.45,1.82,0,4.05-.46,6.61-1.37l.67-.24v11.26l-.3.13c-1.91.82-3.77,1.41-5.52,1.75-1.71.36-3.76.55-6.09.55ZM178.48,72.11h4.92v17.25c0,4.63,1.01,8.11,2.99,10.32,1.97,2.17,5.27,3.28,9.82,3.28,2.25,0,4.23-.18,5.89-.53,1.6-.31,3.28-.84,5.02-1.56v-9.19c-2.4.8-4.51,1.2-6.28,1.2-2.81,0-4.3-1.54-4.3-4.45v-16.32h9.97v-9.51h-9.97v-8.14h-8.35l-3.55,8.36-6.15,4.35v4.95ZM158.07,103.97c-6.87,0-12.3-1.86-16.13-5.52-3.82-3.69-5.75-8.99-5.75-15.75s1.8-12.39,5.34-16.13c3.55-3.77,8.67-5.68,15.22-5.68s11.11,1.66,14.52,4.95c3.43,3.26,5.18,8.02,5.18,14.14v6.74h-25.04c.18,1.89.93,3.35,2.26,4.46,1.48,1.21,3.53,1.82,6.1,1.82,2.41,0,4.66-.23,6.67-.67,2.03-.47,4.27-1.26,6.64-2.37l.71-.33v11.17l-.27.14c-2.23,1.14-4.57,1.94-6.95,2.38-2.36.43-5.22.65-8.49.65ZM156.74,61.89c-6.26,0-11.13,1.81-14.49,5.37-3.36,3.55-5.07,8.74-5.07,15.44s1.83,11.53,5.44,15.03c3.64,3.48,8.83,5.24,15.44,5.24,3.21,0,6-.21,8.3-.64,2.19-.4,4.34-1.12,6.41-2.15v-9c-2.18.97-4.23,1.68-6.13,2.11-2.09.46-4.41.69-6.89.69-2.81,0-5.07-.69-6.74-2.05-1.66-1.38-2.56-3.3-2.66-5.71l-.02-.52h25.1v-5.74c0-5.83-1.64-10.35-4.87-13.41-3.21-3.1-7.87-4.67-13.83-4.67ZM138.37,103.25h-17.29l-11.12-19.08h-2.8v19.08h-15.17v-53.45h17.68c14.52,0,21.88,5.38,21.88,16,0,6.08-2.92,10.88-8.68,14.27l15.51,23.19ZM121.65,102.25h14.85l-15.06-22.52.47-.26c5.73-3.21,8.64-7.81,8.64-13.66,0-10.09-6.83-15-20.88-15h-16.68v51.45h13.17v-19.08h4.37l11.12,19.08ZM163.71,77.89h-13.11l.05-.54c.2-2.34.91-4.09,2.09-5.2,1.21-1.14,2.73-1.71,4.5-1.71,1.93,0,3.5.65,4.64,1.92,1.15,1.25,1.76,2.95,1.81,5.02v.51ZM151.7,76.89h10.97c-.12-1.59-.64-2.89-1.53-3.86-.97-1.08-2.24-1.6-3.9-1.6-1.53,0-2.78.47-3.82,1.44-.91.85-1.49,2.2-1.72,4.01ZM109.31,73.51h-3.15v-12.98h3.3c5.16,0,7.78,1.99,7.78,5.92,0,4.69-2.67,7.07-7.93,7.07ZM107.16,72.51h2.15c4.66,0,6.93-1.98,6.93-6.07,0-3.31-2.22-4.92-6.78-4.92h-2.3v10.98Z"/>
    </g>
  </g>
  <g>
    <path class="cls-5" d="M420,160c44.18,0,80-35.82,80-80S464.18,0,420,0s-80,35.82-80,80,35.82,80,80,80Z"/>
    <path class="cls-4" d="M419.79,143.36c35.31,0,63.89-28.59,63.89-63.89s-28.59-63.9-63.89-63.9-63.9,28.59-63.9,63.9,28.59,63.89,63.89,63.89h.01Z"/>
    <path class="cls-8" d="M463.88,33.24c10.93,11.47,17.66,26.99,17.66,44.1,0,35.31-28.59,63.89-63.89,63.89-17.11,0-32.63-6.73-44.1-17.66,11.64,12.19,28.03,19.8,46.23,19.8,35.31,0,63.89-28.59,63.89-63.89,0-18.2-7.61-34.59-19.8-46.23h.01,0Z"/>
    <path class="cls-7" d="M358.03,81.6c0-35.31,28.59-63.89,63.89-63.89,17.11,0,32.63,6.73,44.1,17.66-11.64-12.19-28.03-19.8-46.23-19.8-35.31,0-63.89,28.59-63.89,63.89,0,18.2,7.61,34.59,19.8,46.23-10.93-11.47-17.66-26.99-17.66-44.1h-.01,0Z"/>
    <path class="cls-2" d="M342.13,82.13c0-44.18,35.82-80,80-80,21.55,0,41.09,8.53,55.48,22.39C463.06,9.42,442.63,0,420,0,375.82,0,340,35.82,340,80c0,22.63,9.42,43.06,24.52,57.61-13.85-14.39-22.39-33.93-22.39-55.48Z"/>
    <path class="cls-7" d="M475.48,22.39c13.86,14.39,22.39,33.93,22.39,55.48,0,44.18-35.82,80-80,80-21.55,0-41.09-8.53-55.48-22.39,14.55,15.1,34.98,24.52,57.61,24.52,44.18,0,80-35.82,80-80,0-22.63-9.42-43.06-24.52-57.61Z"/>
    <g>
      <path class="cls-3" d="M436.85,82.25v.05s0,.05,0,.05c-.3,3.56-1.81,6.91-4.28,9.49-2.47,2.58-5.74,4.25-9.29,4.71-3.54.47-7.14-.29-10.19-2.15-3.05-1.86-5.38-4.7-6.59-8.06-1.21-3.36-1.24-7.03-.08-10.41,1.16-3.38,3.45-6.26,6.47-8.16,3.02-1.9,6.61-2.71,10.16-2.3.47.06.94.13,1.41.23-.78,1.02-1.21,2.27-1.21,3.57,0,1.55.62,3.04,1.71,4.14,1.1,1.1,2.58,1.71,4.14,1.71h8.08c1.99,0,3.91-.79,5.32-2.2.51-.51.93-1.08,1.27-1.7l.24-.48c.45-.97.69-2.04.69-3.14v-8.08c0-1.55-.62-3.04-1.71-4.14-1.1-1.1-2.58-1.71-4.14-1.71s-3.04.62-4.14,1.71c-.4.4-.73.84-.99,1.32-3.32-1.69-6.98-2.7-10.75-2.93-6.13-.37-12.2,1.34-17.24,4.85-5.04,3.51-8.74,8.61-10.52,14.49-1.77,5.88-1.52,12.18.73,17.89,2.25,5.71,6.36,10.5,11.67,13.58,5.31,3.08,11.5,4.29,17.58,3.42,6.08-.87,11.68-3.77,15.91-8.22,4.23-4.45,6.83-10.2,7.39-16.31.07-.81-.02-1.63-.28-2.4-.26-.77-.67-1.48-1.22-2.09-.55-.6-1.22-1.08-1.96-1.42-.74-.33-1.54-.5-2.34-.5-1.44-.01-2.83.51-3.91,1.46-1.08.96-1.77,2.28-1.92,3.72Z"/>
      <g>
        <path class="cls-1" d="M433.85,79.25v.05s0,.05,0,.05c-.3,3.56-1.81,6.91-4.28,9.49-2.47,2.58-5.74,4.25-9.29,4.71-3.54.47-7.14-.29-10.19-2.15-3.05-1.86-5.38-4.7-6.59-8.06-1.21-3.36-1.24-7.03-.08-10.41,1.16-3.38,3.45-6.26,6.47-8.16,3.02-1.9,6.61-2.71,10.16-2.3.47.06.94.13,1.41.23-.78,1.02-1.21,2.27-1.21,3.57,0,1.55.62,3.04,1.71,4.14,1.1,1.1,2.58,1.71,4.14,1.71h8.08c1.99,0,3.91-.79,5.32-2.2.51-.51.93-1.08,1.27-1.7l.24-.48c.45-.97.69-2.04.69-3.14v-8.08c0-1.55-.62-3.04-1.71-4.14-1.1-1.1-2.58-1.71-4.14-1.71s-3.04.62-4.14,1.71c-.4.4-.73.84-.99,1.32-3.32-1.69-6.98-2.7-10.75-2.93-6.13-.37-12.2,1.34-17.24,4.85-5.04,3.51-8.74,8.61-10.52,14.49-1.77,5.88-1.52,12.18.73,17.89,2.25,5.71,6.36,10.5,11.67,13.58,5.31,3.08,11.5,4.29,17.58,3.42,6.08-.87,11.68-3.77,15.91-8.22,4.23-4.45,6.83-10.2,7.39-16.31.07-.81-.02-1.63-.28-2.4-.26-.77-.67-1.48-1.22-2.09-.55-.6-1.22-1.08-1.96-1.42-.74-.33-1.54-.5-2.34-.5-1.44-.01-2.83.51-3.91,1.46-1.08.96-1.77,2.28-1.92,3.72Z"/>
        <path class="cls-7" d="M418.36,105.77c-4.89,0-9.74-1.29-13.99-3.76-5.38-3.13-9.6-8.04-11.88-13.83-2.28-5.79-2.55-12.26-.75-18.22,1.8-5.96,5.6-11.2,10.71-14.76,5.11-3.56,11.35-5.31,17.55-4.93,3.68.22,7.22,1.16,10.53,2.77.24-.37.52-.71.83-1.02,1.2-1.2,2.79-1.86,4.49-1.86s3.29.66,4.49,1.86c1.2,1.2,1.86,2.79,1.86,4.49v8.08c0,1.16-.25,2.28-.73,3.34l-.25.5c-.37.68-.83,1.29-1.37,1.82-1.49,1.49-3.56,2.35-5.67,2.35h-8.08c-1.7,0-3.29-.66-4.49-1.86-1.2-1.2-1.86-2.79-1.86-4.49,0-1.13.31-2.24.87-3.21-.21-.03-.42-.06-.63-.09-3.42-.4-6.91.39-9.83,2.22-2.92,1.83-5.14,4.64-6.27,7.9-1.12,3.26-1.1,6.84.07,10.08,1.17,3.24,3.43,6.01,6.38,7.81,2.94,1.79,6.45,2.53,9.86,2.08,3.42-.45,6.61-2.07,8.99-4.56,2.38-2.49,3.85-5.76,4.14-9.19v-.11c.18-1.56.92-3,2.1-4.04,1.17-1.04,2.67-1.58,4.24-1.59.88,0,1.74.19,2.54.55.81.36,1.53.88,2.13,1.54s1.05,1.42,1.33,2.26c.28.84.38,1.72.3,2.6-.57,6.2-3.24,12.09-7.52,16.61-4.28,4.51-10.04,7.48-16.2,8.37-1.3.19-2.61.28-3.91.28ZM418.35,51.22c-5.45,0-10.84,1.68-15.33,4.8-4.92,3.43-8.59,8.48-10.33,14.22-1.74,5.75-1.48,11.98.72,17.56,2.2,5.58,6.27,10.32,11.46,13.33,5.19,3.02,11.32,4.21,17.25,3.35,5.94-.85,11.48-3.71,15.62-8.07,4.13-4.35,6.71-10.04,7.25-16.01.07-.74-.02-1.48-.25-2.19-.24-.71-.61-1.35-1.12-1.91-.5-.56-1.11-.99-1.79-1.29-.67-.3-1.41-.46-2.14-.46-1.35-.02-2.59.46-3.57,1.34-.99.88-1.62,2.09-1.76,3.4v.05c-.32,3.69-1.89,7.17-4.42,9.83-2.54,2.66-5.94,4.38-9.58,4.86-3.65.48-7.38-.31-10.51-2.22-3.14-1.91-5.55-4.87-6.8-8.32-1.25-3.45-1.27-7.27-.08-10.74,1.2-3.48,3.57-6.47,6.68-8.42,3.11-1.96,6.83-2.8,10.48-2.37.48.06.97.14,1.45.24l.78.16-.48.63c-.71.93-1.11,2.09-1.11,3.26,0,1.43.56,2.77,1.57,3.78.99,1,2.37,1.57,3.78,1.57h8.08c1.85,0,3.66-.75,4.96-2.06.47-.47.87-1,1.19-1.58l.24-.47c.42-.91.63-1.9.63-2.91v-8.08c0-1.43-.56-2.77-1.57-3.78-1.01-1.01-2.35-1.57-3.78-1.57s-2.77.56-3.78,1.57c-.36.36-.67.77-.91,1.21l-.23.43-.43-.22c-3.3-1.68-6.85-2.65-10.55-2.88-.53-.03-1.06-.05-1.59-.05Z"/>
      </g>
    </g>
  </g>
</svg>