<?xml version="1.0" encoding="UTF-8"?>
<svg id="Layer_1" xmlns="http://www.w3.org/2000/svg" xmlns:xlink="http://www.w3.org/1999/xlink" viewBox="0 0 160 160">
  <defs>
    <style>
      .cls-1 {
        fill: url(#linear-gradient-2);
      }

      .cls-2 {
        fill: url(#linear-gradient);
      }

      .cls-3 {
        fill: #464342;
      }

      .cls-4 {
        fill: #fff;
      }
    </style>
    <linearGradient id="linear-gradient" x1="24.43" y1="135.57" x2="135.57" y2="24.43" gradientUnits="userSpaceOnUse">
      <stop offset="0" stop-color="#b72026"/>
      <stop offset=".33" stop-color="#e90037"/>
      <stop offset=".66" stop-color="#b72026"/>
      <stop offset="1" stop-color="#e90037"/>
    </linearGradient>
    <linearGradient id="linear-gradient-2" x1="35.47" y1="35.47" x2="124.53" y2="124.53" xlink:href="#linear-gradient"/>
  </defs>
  <rect class="cls-2" width="160" height="160" rx="17.14" ry="17.14"/>
  <rect class="cls-1" x="17.5" y="17.5" width="125" height="125" rx="7.04" ry="7.04"/>
  <g>
    <g>
      <path class="cls-3" d="M106.87,88.31l-.87-.5c-.4-.24-.72-.59-.92-1.02-.2-.42-.28-.89-.21-1.36.08-.74.12-1.49.12-2.23,0-.74-.04-1.48-.12-2.22-.06-.47,0-.94.21-1.36.2-.42.52-.78.92-1.02l.87-.5c1.44-.84,2.5-2.23,2.93-3.86.43-1.63.21-3.36-.63-4.82l-1.14-2.02c-.41-.72-.97-1.36-1.62-1.86-.66-.51-1.41-.88-2.21-1.1-.8-.22-1.63-.27-2.45-.16-.82.11-1.61.38-2.33.8l-.88.51c-.4.23-.86.33-1.32.3-.46-.03-.9-.2-1.27-.49-1.26-.92-2.61-1.69-4.03-2.32-.43-.18-.8-.48-1.06-.86-.26-.39-.41-.84-.41-1.31,0-1.69-.66-3.3-1.84-4.49-1.18-1.19-2.78-1.86-4.45-1.87h-1.94c-1.67,0-3.27.67-4.45,1.86-1.18,1.19-1.84,2.81-1.85,4.49,0,.47-.15.92-.42,1.31-.26.39-.63.69-1.06.86-1.42.63-2.77,1.41-4.02,2.32-.37.28-.81.45-1.27.49-.46.03-.92-.07-1.32-.3l-.87-.51c-.72-.42-1.51-.69-2.33-.8-.82-.11-1.65-.06-2.45.16-.8.22-1.55.59-2.21,1.1-.66.51-1.21,1.14-1.62,1.87l-1.15,2.02c-.83,1.46-1.06,3.19-.63,4.82.43,1.63,1.49,3.01,2.93,3.86l.87.5c.4.24.72.59.92,1.02.2.42.28.89.21,1.36-.08.74-.11,1.49-.11,2.23,0,.74.04,1.48.12,2.22.06.47,0,.94-.21,1.36-.2.42-.52.78-.92,1.02l-.87.5c-1.44.84-2.5,2.23-2.93,3.86-.43,1.63-.21,3.36.63,4.82l1.15,2.02c.83,1.46,2.21,2.52,3.82,2.96,1.61.44,3.33.21,4.78-.63l.87-.51c.4-.23.86-.33,1.32-.3.46.03.9.2,1.27.49,1.26.92,2.61,1.69,4.03,2.32.43.18.8.48,1.06.86.26.39.41.84.41,1.31,0,1.68.67,3.3,1.85,4.49,1.18,1.19,2.78,1.86,4.45,1.86h1.94c1.67,0,3.27-.67,4.45-1.86,1.18-1.19,1.84-2.81,1.85-4.49,0-.47.15-.92.42-1.31.26-.39.63-.69,1.06-.86,1.42-.63,2.77-1.41,4.02-2.32.37-.28.81-.45,1.27-.48.46-.03.92.07,1.32.3l.87.51c.72.42,1.51.69,2.33.8.82.11,1.65.06,2.45-.16.8-.22,1.55-.59,2.21-1.1.66-.51,1.21-1.14,1.62-1.87l1.15-2.02c.83-1.46,1.06-3.19.62-4.82-.43-1.63-1.49-3.01-2.94-3.86ZM83.2,95.86c-2.48,0-4.91-.74-6.97-2.13-2.06-1.39-3.67-3.37-4.62-5.68-.95-2.31-1.2-4.86-.71-7.32.48-2.46,1.68-4.71,3.43-6.48s3.99-2.98,6.43-3.47c2.43-.49,4.96-.24,7.25.72,2.29.96,4.25,2.58,5.63,4.66,1.38,2.08,2.11,4.53,2.11,7.03,0,3.36-1.33,6.58-3.68,8.95-2.35,2.37-5.54,3.71-8.87,3.71Z"/>
      <path class="cls-3" d="M83.2,91.86c4.74,0,8.59-3.88,8.59-8.66s-3.84-8.66-8.59-8.66-8.59,3.88-8.59,8.66,3.84,8.66,8.59,8.66Z"/>
    </g>
    <g>
      <g>
        <path class="cls-4" d="M103.5,84.93l-.87-.5c-.4-.24-.72-.59-.92-1.02-.2-.42-.28-.89-.21-1.36.08-.74.12-1.49.12-2.23,0-.74-.04-1.48-.12-2.22-.06-.47,0-.94.21-1.36.2-.42.52-.78.92-1.02l.87-.5c1.44-.84,2.5-2.23,2.93-3.86.43-1.63.21-3.36-.63-4.82l-1.14-2.02c-.41-.72-.97-1.36-1.62-1.86-.66-.51-1.41-.88-2.21-1.1-.8-.22-1.63-.27-2.45-.16-.82.11-1.61.38-2.33.8l-.88.51c-.4.23-.86.33-1.32.3-.46-.03-.9-.2-1.27-.49-1.26-.92-2.61-1.69-4.03-2.32-.43-.18-.8-.48-1.06-.86-.26-.39-.41-.84-.41-1.31,0-1.69-.66-3.3-1.84-4.49-1.18-1.19-2.78-1.86-4.45-1.87h-1.94c-1.67,0-3.27.67-4.45,1.86-1.18,1.19-1.84,2.81-1.85,4.49,0,.47-.15.92-.42,1.31-.26.39-.63.69-1.06.86-1.42.63-2.77,1.41-4.02,2.32-.37.28-.81.45-1.27.49-.46.03-.92-.07-1.32-.3l-.87-.51c-.72-.42-1.51-.69-2.33-.8-.82-.11-1.65-.06-2.45.16-.8.22-1.55.59-2.21,1.1-.66.51-1.21,1.14-1.62,1.87l-1.15,2.02c-.83,1.46-1.06,3.19-.63,4.82.43,1.63,1.49,3.01,2.93,3.86l.87.5c.4.24.72.59.92,1.02.2.42.28.89.21,1.36-.08.74-.11,1.49-.11,2.23,0,.74.04,1.48.12,2.22.06.47,0,.94-.21,1.36-.2.42-.52.78-.92,1.02l-.87.5c-1.44.84-2.5,2.23-2.93,3.86-.43,1.63-.21,3.36.63,4.82l1.15,2.02c.83,1.46,2.21,2.52,3.82,2.96,1.61.44,3.33.21,4.78-.63l.87-.51c.4-.23.86-.33,1.32-.3.46.03.9.2,1.27.49,1.26.92,2.61,1.69,4.03,2.32.43.18.8.48,1.06.86.26.39.41.84.41,1.31,0,1.68.67,3.3,1.85,4.49,1.18,1.19,2.78,1.86,4.45,1.86h1.94c1.67,0,3.27-.67,4.45-1.86,1.18-1.19,1.84-2.81,1.85-4.49,0-.47.15-.92.42-1.31.26-.39.63-.69,1.06-.86,1.42-.63,2.77-1.41,4.02-2.32.37-.28.81-.45,1.27-.48.46-.03.92.07,1.32.3l.87.51c.72.42,1.51.69,2.33.8.82.11,1.65.06,2.45-.16.8-.22,1.55-.59,2.21-1.1.66-.51,1.21-1.14,1.62-1.87l1.15-2.02c.83-1.46,1.06-3.19.62-4.82-.43-1.63-1.49-3.01-2.94-3.86ZM79.82,92.48c-2.48,0-4.91-.74-6.97-2.13-2.06-1.39-3.67-3.37-4.62-5.68-.95-2.31-1.2-4.86-.71-7.32.48-2.46,1.68-4.71,3.43-6.48s3.99-2.98,6.43-3.47c2.43-.49,4.96-.24,7.25.72,2.29.96,4.25,2.58,5.63,4.66,1.38,2.08,2.11,4.53,2.11,7.03,0,3.36-1.33,6.58-3.68,8.95-2.35,2.37-5.54,3.71-8.87,3.71Z"/>
        <path class="cls-3" d="M80.79,108.98h-1.94c-1.82,0-3.52-.72-4.8-2.01-1.28-1.29-1.99-3.01-1.99-4.84,0-.36-.12-.72-.33-1.03-.21-.3-.5-.54-.83-.68-1.46-.65-2.85-1.45-4.13-2.38-.3-.23-.65-.37-1.01-.39-.37-.03-.72.05-1.04.23l-.87.51c-1.58.92-3.41,1.16-5.16.68-1.75-.47-3.22-1.61-4.13-3.19l-1.15-2.02c-.9-1.58-1.15-3.43-.68-5.2.47-1.77,1.59-3.24,3.16-4.16l.87-.5c.31-.19.56-.47.72-.8.16-.34.22-.71.17-1.08-.08-.77-.12-1.53-.12-2.29,0-.76.03-1.53.11-2.28.05-.38,0-.76-.17-1.09-.16-.33-.41-.61-.73-.8l-.86-.5c-1.57-.92-2.69-2.4-3.16-4.16-.47-1.77-.23-3.61.68-5.2l1.15-2.02c.45-.78,1.04-1.46,1.75-2.01.71-.55,1.51-.95,2.38-1.18.87-.23,1.76-.29,2.65-.17.89.12,1.74.41,2.51.87l.87.51c.31.18.67.25,1.04.23.36-.03.71-.16,1-.38,1.29-.94,2.68-1.74,4.12-2.38.35-.15.64-.38.85-.69.21-.31.32-.67.33-1.04,0-1.82.71-3.54,1.99-4.83,1.28-1.29,2.99-2.01,4.8-2.01h1.94c1.82,0,3.52.72,4.81,2.01,1.28,1.29,1.99,3.02,1.99,4.85,0,.36.12.72.33,1.03.21.3.5.54.83.68,1.46.65,2.85,1.45,4.13,2.38.3.23.65.36,1.01.39.36.03.72-.05,1.04-.23l.87-.51c.78-.45,1.62-.74,2.51-.86.89-.12,1.78-.06,2.65.17.87.23,1.67.63,2.38,1.18.71.55,1.3,1.23,1.75,2.01l1.15,2.02c.9,1.58,1.14,3.43.67,5.19-.47,1.77-1.59,3.24-3.16,4.16l-.87.5c-.31.19-.56.47-.72.8-.16.34-.22.71-.17,1.08.08.77.12,1.54.12,2.29,0,.77-.04,1.54-.12,2.29-.05.38,0,.75.17,1.09.16.34.41.61.73.8l.86.5c1.57.92,2.7,2.39,3.17,4.16.47,1.77.23,3.61-.67,5.2l-1.15,2.02c-.45.79-1.04,1.46-1.75,2.01-.71.55-1.52.95-2.38,1.18-.87.24-1.76.29-2.65.17-.89-.12-1.73-.41-2.51-.86l-.87-.51c-.31-.17-.68-.26-1.04-.23-.36.03-.71.16-1,.38-1.29.94-2.68,1.74-4.12,2.38-.35.14-.64.38-.85.69-.21.31-.32.66-.33,1.04,0,1.82-.71,3.54-1.99,4.83-1.28,1.29-2.99,2.01-4.8,2.01ZM65.62,96.64c.07,0,.14,0,.21,0,.56.04,1.09.25,1.54.59,1.21.88,2.54,1.65,3.92,2.26.51.21.95.57,1.27,1.04.32.47.49,1.01.5,1.58,0,1.55.62,3.06,1.7,4.15,1.09,1.1,2.55,1.71,4.1,1.71h1.94c1.55,0,3-.61,4.09-1.71,1.1-1.11,1.7-2.57,1.7-4.14.01-.57.18-1.12.5-1.59.32-.47.76-.83,1.28-1.04,1.37-.61,2.69-1.37,3.92-2.26.44-.33.97-.54,1.53-.58.56-.04,1.11.08,1.6.36l.88.51c.67.39,1.39.64,2.14.74.76.1,1.52.05,2.26-.15.74-.2,1.42-.54,2.03-1.01.61-.47,1.11-1.05,1.49-1.72l1.15-2.02c.77-1.36.98-2.93.57-4.44s-1.36-2.77-2.7-3.55l-.87-.5c-.49-.3-.88-.72-1.12-1.23-.24-.51-.33-1.08-.26-1.64.08-.7.12-1.44.12-2.17,0-.72-.04-1.45-.12-2.17-.08-.55.01-1.12.26-1.63.25-.51.63-.94,1.11-1.23l.87-.51c1.34-.78,2.3-2.04,2.7-3.55.4-1.51.2-3.09-.58-4.44l-1.14-2.02c-.38-.67-.88-1.24-1.49-1.71-.61-.47-1.29-.81-2.03-1.01-.74-.2-1.5-.25-2.26-.15-.76.1-1.48.35-2.14.74l-.88.51c-.5.28-1.05.41-1.61.36-.56-.04-1.09-.24-1.54-.59-1.21-.88-2.54-1.65-3.92-2.26-.51-.21-.95-.57-1.27-1.04-.32-.47-.49-1.01-.5-1.58,0-1.57-.6-3.05-1.7-4.15-1.09-1.11-2.55-1.72-4.1-1.72h-1.94c-1.55,0-3,.61-4.09,1.71-1.09,1.1-1.7,2.57-1.7,4.14-.01.57-.19,1.12-.5,1.59-.32.47-.76.83-1.28,1.04-1.37.61-2.69,1.37-3.92,2.26-.43.34-.96.54-1.52.58-.56.04-1.11-.08-1.61-.36l-.88-.51c-.66-.39-1.38-.64-2.14-.74-.76-.1-1.52-.05-2.26.15-.74.2-1.42.54-2.03,1.01-.61.47-1.11,1.05-1.49,1.72l-1.15,2.02c-.77,1.35-.98,2.93-.58,4.44.4,1.51,1.36,2.77,2.7,3.55l.87.5c.49.3.87.72,1.12,1.23.24.51.33,1.08.26,1.64-.07.71-.11,1.44-.11,2.16,0,.73.04,1.45.12,2.17.08.55-.01,1.12-.26,1.63-.24.51-.63.94-1.11,1.23l-.87.51c-1.34.78-2.3,2.04-2.7,3.55-.4,1.51-.2,3.09.58,4.44l1.15,2.02c.77,1.35,2.02,2.32,3.52,2.72,1.49.4,3.05.2,4.39-.58l.87-.51c.43-.25.91-.37,1.4-.37ZM79.82,92.98h0c-2.59,0-5.1-.77-7.25-2.22-2.15-1.45-3.81-3.5-4.8-5.91-.99-2.41-1.25-5.04-.74-7.6.51-2.56,1.74-4.89,3.57-6.74,1.83-1.85,4.14-3.09,6.68-3.6,2.54-.51,5.15-.25,7.54.75s4.42,2.68,5.86,4.85c1.44,2.17,2.2,4.7,2.2,7.31,0,3.51-1.36,6.82-3.82,9.3-2.46,2.49-5.74,3.86-9.22,3.86ZM79.83,67.66c-.79,0-1.57.08-2.36.23-2.34.47-4.48,1.62-6.17,3.33s-2.83,3.86-3.3,6.23c-.47,2.37-.23,4.8.69,7.03.92,2.23,2.45,4.12,4.44,5.46,1.99,1.34,4.3,2.05,6.69,2.05,3.22,0,6.24-1.27,8.51-3.56,2.28-2.3,3.53-5.35,3.54-8.6,0-2.41-.7-4.75-2.03-6.76-1.33-2.01-3.2-3.55-5.41-4.48-1.47-.62-3.03-.93-4.6-.93Z"/>
      </g>
      <g>
        <path class="cls-4" d="M79.82,88.49c4.74,0,8.59-3.88,8.59-8.66s-3.84-8.66-8.59-8.66-8.59,3.88-8.59,8.66,3.84,8.66,8.59,8.66Z"/>
        <path class="cls-3" d="M79.82,88.99c-5.01,0-9.09-4.11-9.09-9.16s4.08-9.16,9.09-9.16,9.09,4.11,9.09,9.16-4.08,9.16-9.09,9.16ZM79.82,71.66c-4.46,0-8.09,3.66-8.09,8.16s3.63,8.16,8.09,8.16,8.09-3.66,8.09-8.16-3.63-8.16-8.09-8.16Z"/>
      </g>
    </g>
  </g>
  <path class="cls-4" d="M3,145.86V20.14C3,10.67,10.67,3,20.14,3h125.72c3.97,0,7.61,1.36,10.51,3.62-3.14-4.03-8.02-6.62-13.51-6.62H17.14C7.67,0,0,7.67,0,17.14v125.72c0,5.5,2.6,10.38,6.62,13.51-2.26-2.9-3.62-6.55-3.62-10.51Z"/>
  <path class="cls-3" d="M153.38,3.62c2.26,2.9,3.62,6.55,3.62,10.51v125.72c0,9.47-7.67,17.14-17.14,17.14H14.14c-3.97,0-7.61-1.36-10.51-3.62,3.14,4.03,8.02,6.62,13.51,6.62h125.72c9.47,0,17.14-7.67,17.14-17.14V17.14c0-5.5-2.6-10.38-6.62-13.51Z"/>
  <path class="cls-3" d="M20.5,138.46V27.54c0-3.89,3.15-7.04,7.04-7.04h110.93c1.17,0,2.27.29,3.24.8-1.17-2.25-3.53-3.8-6.24-3.8H24.54c-3.89,0-7.04,3.15-7.04,7.04v110.93c0,2.72,1.54,5.07,3.8,6.24-.51-.97-.8-2.07-.8-3.24Z"/>
  <path class="cls-4" d="M138.7,18.3c.51.97.8,2.07.8,3.24v110.93c0,3.89-3.15,7.04-7.04,7.04H21.54c-1.17,0-2.27-.29-3.24-.8,1.17,2.25,3.53,3.8,6.24,3.8h110.93c3.89,0,7.04-3.15,7.04-7.04V24.54c0-2.72-1.54-5.07-3.8-6.24Z"/>
</svg>