<?xml version="1.0" encoding="UTF-8"?>
<svg id="Layer_1" xmlns="http://www.w3.org/2000/svg" xmlns:xlink="http://www.w3.org/1999/xlink" viewBox="0 0 160 160">
  <defs>
    <style>
      .cls-1 {
        fill: url(#linear-gradient-2);
      }

      .cls-2 {
        fill: url(#linear-gradient);
      }

      .cls-3 {
        fill: #464342;
      }

      .cls-4 {
        fill: #e7e7e7;
      }

      .cls-5 {
        fill: #fff;
      }
    </style>
    <linearGradient id="linear-gradient" x1="23.43" y1="974.57" x2="136.57" y2="861.43" gradientTransform="translate(0 -838)" gradientUnits="userSpaceOnUse">
      <stop offset="0" stop-color="#b72026"/>
      <stop offset=".33" stop-color="#e90037"/>
      <stop offset=".66" stop-color="#b72026"/>
      <stop offset="1" stop-color="#e90037"/>
    </linearGradient>
    <linearGradient id="linear-gradient-2" x1="34.6" y1="127.72" x2="124.97" y2="37.35" gradientTransform="translate(0 162) scale(1 -1)" gradientUnits="userSpaceOnUse">
      <stop offset="0" stop-color="#b72026"/>
      <stop offset=".33" stop-color="#e90037"/>
      <stop offset=".66" stop-color="#b72026"/>
      <stop offset="1" stop-color="#e90037"/>
    </linearGradient>
  </defs>
  <circle class="cls-2" cx="80" cy="80" r="80"/>
  <path class="cls-1" d="M79.79,143.36c35.31,0,63.89-28.59,63.89-63.89S115.09,15.57,79.79,15.57,15.89,44.16,15.89,79.47s28.59,63.89,63.89,63.89Z"/>
  <g>
    <path class="cls-3" d="M58.83,87.09c0,1.6-.43,3.09-1.17,4.48-.75,1.39-2.03,2.56-3.73,3.41-1.71.85-3.84,1.28-6.4,1.28s-2.45,0-3.52-.21c-.96,0-1.92-.32-2.77-.53-.85-.32-1.71-.64-2.67-1.07v-6.93c1.6.75,3.2,1.39,4.8,1.81,1.6.43,3.09.64,4.37.64s1.39,0,1.92-.32c.53-.21.85-.43,1.07-.75.21-.32.32-.75.32-1.17s-.21-.96-.53-1.28c-.32-.32-.85-.75-1.71-1.07-.75-.43-1.81-.85-2.99-1.39-1.07-.53-2.03-1.07-2.88-1.49-.85-.53-1.6-1.17-2.24-1.81s-1.07-1.49-1.39-2.35c-.32-.96-.53-2.03-.53-3.2,0-1.81.43-3.41,1.39-4.69.96-1.28,2.24-2.24,3.84-2.88s3.52-.96,5.65-.96,3.63.21,5.12.64,2.88.85,4.05,1.49l-2.35,6.08c-1.28-.53-2.45-1.07-3.63-1.39s-2.35-.53-3.31-.53-1.28,0-1.71.21c-.43,0-.75.43-.96.64-.21.32-.32.64-.32.96s.21.85.53,1.17c.32.32.96.75,1.81,1.17s1.92.96,3.41,1.6c1.39.64,2.56,1.28,3.63,2.03.96.75,1.71,1.6,2.24,2.67s.75,2.24.75,3.73h-.11ZM71.2,66.93c3.63,0,6.4.75,8.21,2.35s2.77,3.84,2.77,6.83-.21,2.56-.53,3.84c-.32,1.17-.96,2.35-1.81,3.2-.85.96-1.92,1.71-3.41,2.24-1.39.53-3.09.85-5.23.85h-2.24v9.6h-7.79v-28.91h10.03ZM71.09,73.33h-2.03v6.61h1.49c.64,0,1.28,0,1.92-.32.53-.21,1.07-.64,1.39-1.17s.53-1.28.53-2.13-.32-1.6-.85-2.24c-.53-.53-1.39-.85-2.56-.85h0s.11.11.11.11ZM84.85,95.95v-28.91h7.89v28.91h-7.89ZM124.43,95.95h-10.24l-10.56-20.37h-.21c0,.64,0,1.39.21,2.24v18.13h-6.93v-28.91h10.24l10.56,20.16h.11c0-.64,0-1.39-.11-2.24,0-.85,0-1.71-.11-2.56v-15.36h6.93v28.91h.11Z"/>
    <g>
      <path class="cls-5" d="M55.84,84.21c0,1.6-.43,3.09-1.17,4.48-.75,1.39-2.03,2.56-3.73,3.41-1.71.85-3.84,1.28-6.4,1.28s-2.45,0-3.52-.21c-.96,0-1.92-.32-2.77-.53-.85-.32-1.71-.64-2.67-1.07v-6.93c1.6.75,3.2,1.39,4.8,1.81,1.6.43,3.09.64,4.37.64s1.39,0,1.92-.32c.53-.21.85-.43,1.07-.75.21-.32.32-.75.32-1.17s-.21-.96-.53-1.28c-.32-.32-.85-.75-1.71-1.07-.75-.43-1.81-.85-2.99-1.39-1.07-.53-2.03-1.07-2.88-1.49-.85-.53-1.6-1.17-2.24-1.81s-1.07-1.49-1.39-2.35c-.32-.96-.53-2.03-.53-3.2,0-1.81.43-3.41,1.39-4.69.96-1.28,2.24-2.24,3.84-2.88s3.52-.96,5.65-.96,3.63.21,5.12.64,2.88.85,4.05,1.49l-2.35,6.08c-1.28-.53-2.45-1.07-3.63-1.39s-2.35-.53-3.31-.53-1.28,0-1.71.21c-.43,0-.75.43-.96.64-.21.32-.32.64-.32.96s.21.85.53,1.17c.32.32.96.75,1.81,1.17s1.92.96,3.41,1.6c1.39.64,2.56,1.28,3.63,2.03.96.75,1.71,1.6,2.24,2.67s.75,2.24.75,3.73h-.11ZM68.21,64.05c3.63,0,6.4.75,8.21,2.35s2.77,3.84,2.77,6.83-.21,2.56-.53,3.84c-.32,1.17-.96,2.35-1.81,3.2-.85.96-1.92,1.71-3.41,2.24-1.39.53-3.09.85-5.23.85h-2.24v9.6h-7.79v-28.91h10.03ZM68.11,70.45h-2.03v6.61h1.49c.64,0,1.28,0,1.92-.32.53-.21,1.07-.64,1.39-1.17s.53-1.28.53-2.13-.32-1.6-.85-2.24c-.53-.53-1.39-.85-2.56-.85h0s.11.11.11.11ZM81.97,93.07v-28.91h7.89v28.91h-7.89ZM121.55,93.07h-10.24l-10.56-20.37h-.21c0,.64,0,1.39.21,2.24v18.13h-6.93v-28.91h10.24l10.56,20.16h.11c0-.64,0-1.39-.11-2.24,0-.85,0-1.71-.11-2.56v-15.36h6.93v28.91h.11Z"/>
      <path class="cls-3" d="M44.53,93.89c-2.46,0-2.51,0-3.5-.2l-.12-.02c-.74,0-1.57-.21-2.3-.41l-.5-.13c-.89-.33-1.76-.66-2.75-1.09l-.3-.13v-8.04l.71.33c1.77.82,3.31,1.41,4.72,1.78,1.53.41,3,.62,4.24.62s1.25,0,1.66-.25c.6-.25.79-.41.91-.6.15-.22.24-.55.24-.9,0-.3-.17-.71-.39-.93-.4-.4-.92-.72-1.53-.95-.57-.32-1.23-.61-2-.95-.33-.14-.67-.29-1.02-.45-.58-.29-1.12-.58-1.63-.84-.45-.24-.87-.46-1.27-.66-.84-.52-1.6-1.14-2.37-1.91-.6-.6-1.08-1.41-1.5-2.52-.38-1.13-.56-2.26-.56-3.38,0-2,.5-3.68,1.49-4.99,1.01-1.35,2.38-2.37,4.05-3.04,1.65-.66,3.62-1,5.84-1,2.07,0,3.64.2,5.26.66,1.48.42,2.92.86,4.16,1.54l.39.21-2.69,6.97-1.13-.47c-1.01-.43-1.97-.83-2.91-1.09-1.24-.34-2.33-.52-3.18-.52-.96,0-1.17,0-1.48.16l-.11.05h-.12c-.14,0-.35.22-.49.37l-.12.12c-.1.16-.17.39-.17.61,0,.18.15.58.39.82.3.3.93.7,1.68,1.08.85.42,1.91.95,3.39,1.59,1.51.7,2.68,1.35,3.72,2.08,1.08.84,1.86,1.77,2.4,2.85.55,1.11.8,2.33.8,3.96v.5h-.12c-.08,1.44-.49,2.86-1.22,4.22-.79,1.48-2.16,2.73-3.95,3.62-1.77.88-4,1.33-6.62,1.33ZM36.07,91.25c.84.36,1.6.65,2.34.92l.46.12c.7.19,1.43.38,2.14.38l.22.03q.89.18,3.3.18c2.47,0,4.55-.41,6.18-1.23,1.6-.8,2.82-1.91,3.52-3.2.74-1.37,1.11-2.8,1.11-4.24v-.5h.1c-.04-1.22-.26-2.16-.69-3.01-.48-.96-1.15-1.76-2.1-2.5-.96-.67-2.09-1.3-3.53-1.97-1.49-.64-2.57-1.18-3.43-1.61s-1.56-.89-1.94-1.27c-.39-.39-.68-1.04-.68-1.53,0-.42.14-.83.4-1.24l.16-.17c.22-.24.58-.62,1.09-.68.49-.22.91-.22,1.83-.22s2.12.19,3.44.55c1,.27,1.99.69,3.04,1.13l.18.08,2-5.18c-1.06-.52-2.29-.89-3.56-1.25-1.52-.44-3.01-.62-4.98-.62-2.1,0-3.93.31-5.47.92-1.51.6-2.73,1.52-3.63,2.72-.85,1.14-1.29,2.62-1.29,4.39,0,1.02.17,2.02.51,3.04.36.95.77,1.66,1.27,2.15.72.72,1.42,1.29,2.15,1.74.36.18.79.41,1.25.65.5.26,1.03.54,1.59.82.33.15.67.3.99.44.79.35,1.47.65,2.02.96.67.25,1.31.64,1.81,1.15.41.41.68,1.06.68,1.63s-.14,1.06-.4,1.45c-.26.4-.65.67-1.3.93-.58.36-.78.36-2.11.36s-2.89-.23-4.5-.66c-1.27-.34-2.64-.84-4.17-1.52v5.83ZM121.55,93.57h-10.54l-.14-.27-9.67-18.66c.01.06.03.12.04.18v.12s.01,18.63.01,18.63h-7.93v-29.91h11.04l9.78,18.68c0-.06-.01-.13-.02-.2,0-.92,0-1.74-.11-2.56v-15.92s7.93,0,7.93,0v29.41h-.39v.5ZM111.61,92.57h9.33v-27.91h-5.93v14.86c.11.82.11,1.71.11,2.56.11.82.11,1.58.11,2.24v.5h-.91l-10.56-20.16h-9.44v27.91h5.93v-17.57c-.21-.89-.21-1.67-.21-2.3v-.5h1.02l10.56,20.37ZM90.37,93.57h-8.89v-29.91h8.89v29.91ZM82.47,92.57h6.89v-27.91h-6.89v27.91ZM66.47,93.46h-8.79v-29.91h10.53c3.81,0,6.69.83,8.54,2.47,1.95,1.72,2.94,4.15,2.94,7.2,0,2.2-.11,2.61-.34,3.27-.06.18-.13.38-.21.7-.35,1.3-1.06,2.55-1.94,3.43-.95,1.06-2.1,1.82-3.6,2.36-1.52.58-3.34.88-5.39.88h-1.74v9.6ZM58.69,92.46h6.79v-9.6h2.74c1.93,0,3.63-.28,5.05-.82,1.35-.48,2.37-1.15,3.22-2.11.78-.78,1.4-1.87,1.7-3,.08-.34.16-.57.23-.77.18-.5.28-.81.28-2.94,0-2.79-.85-4.91-2.6-6.45-1.67-1.47-4.32-2.22-7.88-2.22h-9.53v27.91ZM67.57,77.57h-1.99v-7.61h1.32l-.11-.11h1.21c1.25,0,2.26.35,2.91,1,.67.81,1,1.67,1,2.59s-.21,1.74-.6,2.39c-.36.6-.97,1.12-1.63,1.38-.71.36-1.45.36-2.11.36ZM66.58,76.57h.99c.6,0,1.16,0,1.7-.27.5-.2.93-.57,1.18-.98.3-.5.46-1.16.46-1.88s-.25-1.33-.74-1.92c-.26-.26-.65-.46-1.14-.57h-2.46v5.61Z"/>
    </g>
  </g>
  <path class="cls-4" d="M123.88,33.24c10.93,11.47,17.66,26.99,17.66,44.1,0,35.31-28.59,63.89-63.89,63.89-17.11,0-32.63-6.73-44.1-17.66,11.64,12.19,28.03,19.8,46.23,19.8,35.31,0,63.89-28.59,63.89-63.89,0-18.2-7.61-34.59-19.8-46.23Z"/>
  <path class="cls-3" d="M18.03,81.6c0-35.31,28.59-63.89,63.89-63.89,17.11,0,32.63,6.73,44.1,17.66-11.64-12.19-28.03-19.8-46.23-19.8-35.31,0-63.89,28.59-63.89,63.89,0,18.2,7.61,34.59,19.8,46.23-10.93-11.47-17.66-26.99-17.66-44.1Z"/>
  <path class="cls-5" d="M2.13,82.13C2.13,37.95,37.95,2.13,82.13,2.13c21.55,0,41.09,8.53,55.48,22.39C123.06,9.42,102.63,0,80,0,35.82,0,0,35.82,0,80c0,22.63,9.42,43.06,24.52,57.61C10.67,123.22,2.13,103.68,2.13,82.13Z"/>
  <path class="cls-3" d="M135.48,22.39c13.86,14.39,22.39,33.93,22.39,55.48,0,44.18-35.82,80-80,80-21.55,0-41.09-8.53-55.48-22.39,14.55,15.1,34.98,24.52,57.61,24.52,44.18,0,80-35.82,80-80,0-22.63-9.42-43.06-24.52-57.61Z"/>
</svg>