<?xml version="1.0" encoding="UTF-8"?>
<svg xmlns="http://www.w3.org/2000/svg" version="1.1" viewBox="0 0 355 49">
  <defs>
    <style>
      .cls-1 {
        fill: none;
        stroke: #464342;
      }

      .cls-2 {
        fill: #e90037;
      }

      .cls-3 {
        fill: #fff;
      }
    </style>
  </defs>
  <!-- Generator: Adobe Illustrator 28.7.1, SVG Export Plug-In . SVG Version: 1.2.0 Build 142)  -->
  <g>
    <g id="Layer_1">
      <path class="cls-2"
        d="M23,11l33,33c3.5,3.5,4,4,10,4h224c4,0,5.5-.5,8-3,2.1-2.1,34-34,35-35,1-1,3-2,5-2h17V0H0v8h16c3,0,5,1,7,3Z" />
      <path class="cls-1"
        d="M355,8h-16.7c-2.1,0-4.2.8-5.7,2.3l-35.3,35.3c-1.5,1.5-3.5,2.3-5.7,2.3H63.3c-2.1,0-4.2-.8-5.7-2.3L22.3,10.3c-1.5-1.5-3.5-2.3-5.7-2.3H0" />
      <g>
        <path class="cls-3" d="M126.7,12.4v-.4h-19.7v5.2c0,2.9,2.4,5.3,5.3,5.3h.4v-4.8h8.6c3,0,5.4-2.4,5.4-5.4h0Z" />
        <path class="cls-3" d="M126.7,22.9v-.4h-14v7.9c0,2.9,2.4,5.3,5.3,5.3h.4v-7.5h2.9c3,0,5.4-2.3,5.4-5.3h0Z" />
        <path class="cls-3" d="M123.8,29.9c-1.6,0-2.9,1.3-2.9,2.9s1.3,2.9,2.9,2.9,2.9-1.3,2.9-2.9-1.3-2.9-2.9-2.9Z" />
        <path class="cls-3" d="M134.7,35.8h6.2v-7.1h8.9v-6.2h-8.9v-4.3h9.7v-6.2h-15.9v23.8Z" />
        <path class="cls-3" d="M152.5,35.8h6.1V12h-6.2v23.8Z" />
        <path class="cls-3"
          d="M175.8,20.2c-.7-.8-1.7-1.4-2.7-1.8-1-.4-2.2-.6-3.4-.6s-2.5.2-3.6.6c-1.1.4-2.1,1-2.9,1.8-.8.8-1.5,1.7-1.9,2.9-.5,1.1-.7,2.4-.7,3.7s.2,2.7.7,3.8c.5,1.1,1.2,2.1,2,2.8.8.8,1.8,1.3,3,1.7,1.1.4,2.3.6,3.6.6s3.2-.3,4.5-.9c1.3-.6,2.4-1.5,3.2-2.7l.2-.3-4.3-2.7-.2.3c-.3.5-.8.8-1.3,1.1-.5.3-1.2.4-2,.4s-.9,0-1.3-.2c-.4-.1-.8-.3-1.1-.6-.3-.2-.6-.5-.8-.9-.1-.2-.2-.5-.3-.7h11.7v-.3c0-.2,0-.4,0-.7v-.7c0-1.4-.2-2.7-.6-3.8-.4-1.1-1-2.1-1.8-2.9h0ZM166.4,24.6c0-.2.1-.5.2-.7.2-.3.4-.6.7-.9.3-.3.6-.5,1-.6.4-.1.8-.2,1.3-.2,1,0,1.7.3,2.1.8.4.5.6,1,.7,1.6h-6.1,0Z" />
        <path class="cls-3"
          d="M196.9,17.8h-6.9l-2.9,4.3-2.9-4.3h-7.1l6.1,8.6-6.8,9.4h7.1l3.4-5,3.3,5h7.2l-6.7-9.4,6.1-8.6Z" />
        <path class="cls-3"
          d="M214,28.3c-.4.6-1.1,1.1-1.8,1.5-.7.4-1.6.6-2.6.6s-1.7-.2-2.4-.5c-.7-.3-1.4-.8-1.9-1.3-.5-.6-.9-1.2-1.2-2-.3-.8-.4-1.7-.4-2.6s.2-1.8.4-2.6c.3-.8.7-1.5,1.2-2,.5-.6,1.2-1,1.9-1.3.7-.3,1.6-.5,2.4-.5s1.6.2,2.4.5c.8.3,1.4.8,1.8,1.4l.2.3,4.1-4.1-.2-.2c-1-1.1-2.3-1.9-3.8-2.5-1.5-.6-3.1-.8-4.7-.8s-3.3.3-4.8.8c-1.5.6-2.8,1.4-3.9,2.4-1.1,1-2,2.3-2.6,3.8-.6,1.5-.9,3.1-.9,4.9s.3,3.4.9,4.9c.6,1.5,1.5,2.8,2.6,3.8s2.4,1.9,3.9,2.5c1.5.6,3.1.9,4.9.9s3.6-.3,5.1-1c1.5-.7,2.7-1.6,3.7-2.8l.2-.2-4.2-4-.2.3h0Z" />
        <path class="cls-3"
          d="M233.7,20c-.6-.8-1.5-1.3-2.5-1.7-1-.4-2.2-.5-3.6-.5s-2.7.2-4,.7c-1.3.5-2.5,1.2-3.5,2.1l-.2.2,3.2,3.4.3-.2c.5-.4,1.1-.8,1.7-1.1.7-.3,1.4-.5,2.1-.5s1.4.2,1.9.5c.5.3.7.8.7,1.4-1.1,0-2.2,0-3.3.2-1.3.1-2.4.4-3.5.8-1.1.4-2,1-2.6,1.8-.7.8-1.1,1.8-1.1,3.1s.2,1.9.6,2.6c.4.7.9,1.3,1.5,1.7.6.4,1.3.7,2,.9.7.2,1.4.3,2.1.3,1,0,2-.2,2.9-.6.6-.3,1.1-.6,1.5-1v1.6h5.6v-9c0-1.5-.1-2.8-.4-3.9-.3-1.1-.7-2.1-1.4-2.8h0ZM229.4,28.3h.3v.2c0,.9-.3,1.7-.8,2.2-.5.5-1.2.8-2.2.8s-.5,0-.8,0c-.2,0-.5-.1-.6-.2-.2-.1-.3-.2-.4-.4-.1-.2-.2-.4-.2-.6,0-.4.1-.7.3-.9.3-.3.6-.5,1-.6.4-.1,1-.2,1.5-.3.6,0,1.2,0,1.7,0Z" />
        <path class="cls-3"
          d="M248,17.8c-.2,0-.4,0-.7,0-1.1,0-2,.3-2.8.9-.5.3-.9.7-1.3,1.2v-2.1h-5.8v18h6v-9.3c0-.3,0-.6.2-1,.1-.4.3-.8.6-1.1.3-.3.6-.6,1.1-.9.6-.3,1.3-.4,2.3-.3.2,0,.4,0,.6.1h.4c0,.1.3-5.3.3-5.3h-.2c-.2-.1-.3-.2-.6-.2h0Z" />
      </g>
    </g>
  </g>
</svg>