<?xml version="1.0" encoding="UTF-8"?>
<svg id="Layer_1" data-name="Layer 1" xmlns="http://www.w3.org/2000/svg" viewBox="0 0 600 100">
  <defs>
    <style>
      .cls-1 {
        fill: #e90037;
      }

      .cls-2 {
        fill: #fff;
      }
    </style>
  </defs>
  <g>
    <path class="cls-1" d="M48.1,40.98L63.61,7.62h26.34l-29.61,54.84v35.14h-24.5v-34.41L6.25,7.62h26.47l15.39,33.36Z"/>
    <path class="cls-1" d="M176.32,52.49c0,15.14-3.71,26.65-11.14,34.53-7.43,7.88-18.3,11.82-32.62,11.82s-24.94-3.96-32.47-11.88c-7.53-7.92-11.29-19.45-11.29-34.59s3.74-26.41,11.23-34.31c7.49-7.9,18.37-11.85,32.65-11.85s25.17,3.92,32.56,11.76c7.39,7.84,11.08,19.35,11.08,34.53ZM114.4,52.49c0,17.4,6.05,26.1,18.16,26.1,6.15,0,10.72-2.11,13.69-6.34,2.97-4.23,4.46-10.81,4.46-19.76s-1.51-15.62-4.52-19.91c-3.02-4.29-7.52-6.43-13.51-6.43-12.19,0-18.28,8.78-18.28,26.34Z"/>
    <path class="cls-1" d="M261.51,7.62v54.16c0,11.78-3.33,20.9-10,27.36-6.67,6.46-16.28,9.69-28.84,9.69s-21.7-3.14-28.28-9.42c-6.59-6.28-9.88-15.3-9.88-27.08V7.62h24.44v52.81c0,6.36,1.19,10.98,3.57,13.85,2.38,2.87,5.89,4.31,10.53,4.31,4.96,0,8.57-1.42,10.8-4.28,2.24-2.85,3.35-7.52,3.35-14V7.62h24.31Z"/>
    <path class="cls-1" d="M395.21,97.61h-28.74l-8.62-39.21c-.41-1.64-1.06-4.9-1.94-9.79-.88-4.88-1.53-8.97-1.94-12.25-.33,2.67-.86,5.98-1.6,9.94-.74,3.96-1.47,7.6-2.19,10.93-.72,3.32-3.7,16.78-8.96,40.38h-28.74l-22.28-89.99h23.45l9.79,45.12c2.22,9.97,3.73,17.91,4.55,23.82.53-4.19,1.49-9.87,2.86-17.05,1.37-7.18,2.66-13.13,3.85-17.85l7.94-34.04h22.53l7.69,34.04c1.31,5.46,2.65,11.76,4,18.9,1.35,7.14,2.26,12.47,2.71,16,.53-4.55,1.99-12.45,4.37-23.7l9.97-45.24h23.45l-22.16,89.99Z"/>
    <path class="cls-1" d="M505.64,52.49c0,15.14-3.71,26.65-11.14,34.53-7.43,7.88-18.3,11.82-32.62,11.82s-24.94-3.96-32.47-11.88c-7.53-7.92-11.29-19.45-11.29-34.59s3.74-26.41,11.23-34.31c7.49-7.9,18.37-11.85,32.65-11.85s25.17,3.92,32.56,11.76c7.39,7.84,11.08,19.35,11.08,34.53ZM443.72,52.49c0,17.4,6.05,26.1,18.16,26.1,6.15,0,10.72-2.11,13.69-6.34,2.97-4.23,4.46-10.81,4.46-19.76s-1.51-15.62-4.52-19.91c-3.02-4.29-7.52-6.43-13.51-6.43-12.19,0-18.28,8.78-18.28,26.34Z"/>
    <path class="cls-1" d="M600,97.61h-31.88l-32.87-63.4h-.55c.78,9.97,1.17,17.58,1.17,22.84v40.56h-21.54V7.62h31.76l32.74,62.53h.37c-.58-9.07-.86-16.35-.86-21.85V7.62h21.67v89.99Z"/>
  </g>
  <g>
    <g>
      <polygon class="cls-2" points="30.61 90.4 30.61 57 30.49 56.53 1.67 2.42 25.83 2.42 40.95 35.19 42.76 35.2 58 2.42 82.03 2.42 53.22 55.78 53.1 56.26 53.1 90.4 30.61 90.4"/>
      <path class="cls-1" d="M80.36,3.42l-28.01,51.89-.24.95v33.14h-20.5v-32.41l-.23-.94L3.33,3.42h21.86l14.85,32.2h3.63S58.64,3.42,58.64,3.42h21.72M83.71,1.42h-26.34l-15.51,33.36L26.47,1.42H0l29.61,55.58v34.41h24.5v-35.14L83.71,1.42h0Z"/>
    </g>
    <g>
      <path class="cls-2" d="M126.31,91.63c-13.77,0-24.44-3.89-31.74-11.57-7.31-7.69-11.02-19.09-11.02-33.9s3.69-25.96,10.96-33.63c7.26-7.65,18-11.54,31.93-11.54s24.68,3.85,31.83,11.44c7.17,7.61,10.81,19,10.81,33.84s-3.66,26.19-10.87,33.84c-7.2,7.63-17.93,11.5-31.89,11.5ZM126.43,18.94c-12.79,0-19.28,9.2-19.28,27.34s6.45,27.1,19.16,27.1c6.47,0,11.35-2.28,14.51-6.76,3.08-4.38,4.64-11.22,4.64-20.33s-1.58-16.05-4.71-20.49c-3.2-4.55-8.02-6.86-14.33-6.86Z"/>
      <path class="cls-1" d="M126.43,2c13.68,0,24.15,3.74,31.1,11.13,6.99,7.42,10.53,18.57,10.53,33.16s-3.56,25.7-10.6,33.16c-7,7.42-17.49,11.19-31.17,11.19s-23.92-3.79-31.02-11.26c-7.13-7.5-10.74-18.67-10.74-33.21s3.59-25.46,10.68-32.94c7.06-7.45,17.56-11.22,31.2-11.22M126.31,74.38c6.81,0,11.97-2.42,15.33-7.19,3.25-4.61,4.83-11.45,4.83-20.91s-1.6-16.38-4.89-21.06c-3.4-4.83-8.49-7.28-15.15-7.28s-11.92,2.51-15.35,7.45c-3.27,4.71-4.93,11.74-4.93,20.9s1.65,16.04,4.9,20.72c3.41,4.9,8.54,7.38,15.26,7.38M126.43,0C112.15,0,101.27,3.95,93.78,11.85c-7.49,7.9-11.23,19.34-11.23,34.31s3.76,26.67,11.29,34.59c7.53,7.92,18.35,11.88,32.47,11.88s25.19-3.94,32.62-11.82c7.43-7.88,11.14-19.39,11.14-34.53s-3.69-26.69-11.08-34.53C151.61,3.92,140.75,0,126.43,0h0ZM126.31,72.38c-12.11,0-18.16-8.7-18.16-26.1s6.09-26.34,18.28-26.34c5.99,0,10.49,2.14,13.51,6.43,3.02,4.29,4.52,10.93,4.52,19.91s-1.49,15.53-4.46,19.76c-2.98,4.23-7.54,6.34-13.69,6.34h0Z"/>
    </g>
    <g>
      <path class="cls-2" d="M216.43,91.63c-11.95,0-21.23-3.08-27.59-9.14-6.35-6.05-9.57-14.92-9.57-26.36V2.42h22.44v51.81c0,6.57,1.28,11.44,3.8,14.49,2.57,3.1,6.37,4.67,11.29,4.67,5.27,0,9.16-1.57,11.59-4.66,2.4-3.06,3.57-7.84,3.57-14.62V2.42h22.31v53.16c0,11.44-3.26,20.4-9.7,26.64-6.44,6.25-15.91,9.41-28.14,9.41Z"/>
      <path class="cls-1" d="M253.26,3.42v52.16c0,11.16-3.16,19.88-9.39,25.92-6.25,6.06-15.48,9.13-27.44,9.13s-20.73-2.98-26.9-8.86c-6.14-5.86-9.26-14.48-9.26-25.63V3.42h20.44v50.81c0,6.91,1.32,11.85,4.03,15.12,2.77,3.34,6.83,5.03,12.07,5.03,5.59,0,9.75-1.7,12.38-5.04,2.54-3.24,3.78-8.23,3.78-15.24V3.42h20.31M255.26,1.42h-24.31v52.69c0,6.48-1.12,11.15-3.35,14-2.24,2.85-5.84,4.28-10.8,4.28-4.64,0-8.15-1.44-10.53-4.31-2.38-2.87-3.57-7.49-3.57-13.85V1.42h-24.44v54.72c0,11.78,3.29,20.8,9.88,27.08,6.59,6.28,16.01,9.42,28.28,9.42s22.17-3.23,28.84-9.69c6.67-6.46,10-15.58,10-27.36V1.42h0Z"/>
    </g>
    <g>
      <path class="cls-2" d="M361.02,90.4l-8.44-38.42c-.41-1.64-1.06-4.92-1.93-9.75-.87-4.82-1.52-8.93-1.93-12.19h-1.98c-.33,2.65-.86,5.98-1.59,9.88-.73,3.93-1.47,7.59-2.18,10.9-.7,3.24-3.57,16.19-8.78,39.59h-27.16L285.24,2.42h21.37l9.62,44.33c2.2,9.89,3.73,17.88,4.54,23.74h1.98c.53-4.15,1.49-9.87,2.85-17,1.37-7.15,2.66-13.13,3.83-17.79l7.76-33.28h20.93l7.52,33.26c1.31,5.44,2.65,11.79,3.99,18.86,1.34,7.06,2.25,12.42,2.7,15.94h1.99c.52-4.5,1.99-12.44,4.36-23.62l9.8-44.45h21.37l-21.66,87.99h-27.16Z"/>
      <path class="cls-1" d="M408.57,3.42l-21.17,85.99h-25.57l-8.27-37.64v-.06c-.41-1.59-1.05-4.84-1.92-9.66-.87-4.82-1.52-8.91-1.92-12.14h-3.97c-.32,2.63-.86,5.94-1.58,9.82-.72,3.88-1.46,7.54-2.17,10.87-.7,3.22-3.59,16.27-8.6,38.8h-25.57L286.52,3.42h19.28l9.45,43.55c2.19,9.86,3.71,17.82,4.53,23.66l3.96-.02c.52-4.12,1.48-9.82,2.84-16.93,1.36-7.13,2.65-13.09,3.83-17.77l7.58-32.49h19.34l7.35,32.5c1.3,5.4,2.64,11.73,3.98,18.8,1.34,7.05,2.24,12.39,2.69,15.88l3.97-.02c.52-4.46,1.98-12.37,4.34-23.5l9.63-43.67h19.29M411.12,1.42h-23.45l-9.97,45.24c-2.38,11.24-3.84,19.14-4.37,23.7-.45-3.53-1.35-8.86-2.71-16-1.35-7.14-2.69-13.44-4-18.9l-7.69-34.04h-22.53l-7.94,34.04c-1.19,4.72-2.47,10.67-3.85,17.85-1.38,7.18-2.33,12.86-2.86,17.05-.82-5.91-2.34-13.85-4.55-23.82l-9.79-45.12h-23.45l22.28,89.99h28.74c5.25-23.59,8.24-37.05,8.96-40.38.72-3.32,1.45-6.96,2.19-10.93.74-3.96,1.27-7.27,1.6-9.94.41,3.28,1.06,7.37,1.94,12.25.88,4.88,1.53,8.15,1.94,9.79l8.62,39.21h28.74L411.12,1.42h0Z"/>
    </g>
    <g>
      <path class="cls-2" d="M455.63,91.63c-13.76,0-24.44-3.89-31.74-11.57-7.31-7.69-11.02-19.09-11.02-33.9s3.69-25.96,10.96-33.63c7.26-7.65,18-11.54,31.93-11.54s24.68,3.85,31.83,11.44c7.17,7.61,10.81,19,10.81,33.84s-3.66,26.19-10.87,33.84c-7.2,7.63-17.93,11.5-31.89,11.5ZM455.75,18.94c-12.79,0-19.28,9.2-19.28,27.34s6.45,27.1,19.16,27.1c6.47,0,11.35-2.28,14.51-6.76,3.08-4.38,4.64-11.22,4.64-20.33s-1.58-16.05-4.71-20.49c-3.2-4.55-8.02-6.86-14.33-6.86Z"/>
      <path class="cls-1" d="M455.75,2c13.68,0,24.15,3.74,31.1,11.13,6.99,7.42,10.53,18.57,10.53,33.16s-3.56,25.7-10.6,33.16c-7,7.42-17.49,11.19-31.17,11.19s-23.92-3.79-31.02-11.26c-7.13-7.5-10.74-18.67-10.74-33.21s3.59-25.46,10.68-32.94c7.06-7.45,17.56-11.22,31.2-11.22M455.63,74.38c6.81,0,11.97-2.42,15.33-7.19,3.25-4.61,4.83-11.45,4.83-20.91s-1.6-16.38-4.89-21.06c-3.4-4.83-8.49-7.28-15.15-7.28s-11.92,2.51-15.35,7.45c-3.27,4.71-4.93,11.74-4.93,20.9s1.65,16.04,4.9,20.72c3.41,4.9,8.54,7.38,15.26,7.38M455.75,0C441.47,0,430.59,3.95,423.1,11.85c-7.49,7.9-11.23,19.34-11.23,34.31s3.76,26.67,11.29,34.59c7.53,7.92,18.35,11.88,32.47,11.88s25.19-3.94,32.62-11.82c7.43-7.88,11.14-19.39,11.14-34.53s-3.69-26.69-11.08-34.53C480.93,3.92,470.07,0,455.75,0h0ZM455.63,72.38c-12.1,0-18.16-8.7-18.16-26.1s6.09-26.34,18.28-26.34c5.99,0,10.49,2.14,13.51,6.43,3.02,4.29,4.52,10.93,4.52,19.91s-1.49,15.53-4.46,19.76c-2.98,4.23-7.54,6.34-13.69,6.34h0Z"/>
    </g>
    <g>
      <path class="cls-2" d="M562.48,90.4l-32.59-62.86-.89-.54h-.55l-1,1.08c.77,9.91,1.17,17.57,1.17,22.76v39.56h-19.54V2.42h30.15l32.46,62,.89.54h.37l1-1.06c-.57-8.99-.86-16.32-.86-21.79V2.42h19.67v87.99h-30.27Z"/>
      <path class="cls-1" d="M591.76,3.42v85.99h-28.67l-32.31-62.32-1.78-1.08h-.55l-1.99,2.16c.77,9.89,1.16,17.52,1.16,22.68v38.56h-17.54V3.42h28.55l32.18,61.46,1.77,1.07h.37l2-2.13c-.57-8.97-.86-16.28-.86-21.72V3.42h17.67M593.76,1.42h-21.67v40.68c0,5.5.29,12.78.86,21.85h-.37L539.84,1.42h-31.76v89.99h21.54v-40.56c0-5.25-.39-12.86-1.17-22.84h.55l32.87,63.4h31.88V1.42h0Z"/>
    </g>
  </g>
</svg>